<?xml version="1.0" standalone="no"?>
<!DOCTYPE svg PUBLIC "-//W3C//DTD SVG 20010904//EN"
 "http://www.w3.org/TR/2001/REC-SVG-20010904/DTD/svg10.dtd">
<svg version="1.0" xmlns="http://www.w3.org/2000/svg"
 width="1400.000000pt" height="1400.000000pt" viewBox="0 0 1400.000000 1400.000000"
 preserveAspectRatio="xMidYMid meet">
<metadata>
Created by potrace 1.11, written by Peter Selinger 2001-2013
</metadata>
<g transform="translate(0.000000,1400.000000) scale(0.100000,-0.100000)"
fill="#000000" stroke="none">
<path d="M6164 13825 c3 -9 6 -21 6 -26 0 -5 9 -9 21 -9 31 0 22 44 -10 48
-19 3 -22 0 -17 -13z"/>
<path d="M6013 13823 c9 -2 25 -2 35 0 9 3 1 5 -18 5 -19 0 -27 -2 -17 -5z"/>
<path d="M6293 13756 c-32 -15 -29 -26 7 -26 23 0 30 4 30 20 0 22 -4 23 -37
6z"/>
<path d="M6400 13750 c0 -11 5 -20 10 -20 6 0 10 9 10 20 0 11 -4 20 -10 20
-5 0 -10 -9 -10 -20z"/>
<path d="M4425 13506 l-30 -13 23 -12 c19 -10 22 -20 22 -66 0 -50 2 -55 25
-61 33 -8 65 20 65 57 0 22 -6 29 -29 34 -20 4 -28 12 -28 28 -1 54 -1 53 -48
33z"/>
<path d="M4305 13455 c-23 -10 -25 -14 -10 -14 21 -1 52 15 45 23 -3 2 -18 -2
-35 -9z"/>
<path d="M6237 13443 c-64 -5 -50 -23 19 -23 41 0 54 4 54 15 0 8 -6 14 -12
13 -7 -1 -34 -3 -61 -5z"/>
<path d="M4081 13359 c-13 -5 -22 -11 -20 -14 8 -7 49 7 49 16 0 5 -1 9 -2 8
-2 0 -14 -5 -27 -10z"/>
<path d="M3805 13222 c-385 -198 -637 -355 -954 -591 -99 -75 -165 -131 -171
-147 -16 -42 -11 -73 15 -96 13 -11 22 -25 19 -30 -3 -4 10 -9 28 -10 18 -1 6
-4 -27 -7 -53 -5 -60 -9 -63 -28 -4 -30 -42 -32 -42 -3 0 13 -7 20 -20 20 -11
0 -20 -4 -20 -10 0 -5 5 -10 10 -10 6 0 10 -13 10 -29 0 -25 -5 -30 -32 -36
-18 -4 -35 -11 -38 -16 -3 -5 -31 -11 -63 -15 -49 -6 -57 -4 -57 10 0 9 -4 16
-10 16 -5 0 -10 -4 -10 -10 0 -5 -9 -10 -20 -10 -23 0 -24 -1 -8 -35 10 -23
16 -26 45 -20 20 4 33 2 33 -5 0 -14 96 -13 120 2 10 7 23 8 27 4 4 -5 2 -11
-4 -13 -9 -3 -13 -32 -13 -94 0 -82 -1 -89 -20 -89 -11 0 -20 -3 -20 -7 1 -18
29 -43 49 -43 11 0 21 -4 21 -10 0 -5 -13 -10 -29 -10 -32 0 -97 -25 -117 -45
-16 -16 -19 -45 -4 -45 6 0 10 -7 10 -15 0 -8 -4 -15 -10 -15 -6 0 -10 -37
-10 -90 0 -82 2 -90 19 -90 17 0 20 -8 23 -47 2 -39 6 -47 21 -45 9 2 17 -3
17 -10 0 -9 3 -9 10 2 6 10 10 11 10 3 0 -7 12 -13 26 -13 25 0 26 -2 22 -43
-5 -43 -5 -43 23 -39 34 5 38 -12 9 -30 -15 -10 -20 -24 -20 -58 0 -34 5 -48
20 -58 11 -7 20 -16 20 -21 0 -13 -30 -22 -43 -14 -18 11 -68 4 -104 -15 -52
-27 -43 -35 52 -47 27 -3 51 -8 53 -10 3 -2 1 -21 -2 -41 l-7 -36 -55 4 c-30
3 -54 1 -54 -4 0 -4 8 -8 18 -9 9 0 25 -2 35 -4 10 -2 50 -9 88 -16 38 -7 69
-14 69 -16 0 -15 -33 -33 -59 -33 -21 0 -31 -5 -31 -15 0 -10 -10 -15 -31 -15
-17 0 -37 7 -45 15 -9 9 -34 15 -60 15 -27 0 -52 -6 -60 -15 -9 -8 -25 -15
-37 -15 -12 0 -28 -9 -35 -20 -9 -15 -23 -20 -52 -20 -25 0 -42 -6 -48 -16
-12 -22 -62 -8 -62 17 0 10 -7 19 -15 19 -8 0 -15 5 -15 10 0 14 -19 12 -34
-3 -11 -11 -11 -17 -1 -30 7 -9 19 -17 28 -17 29 0 47 -12 47 -31 0 -10 7 -19
15 -19 9 0 20 -11 27 -25 9 -21 19 -25 66 -27 46 -3 56 -6 58 -23 5 -33 -7
-64 -27 -70 -10 -4 -19 -15 -19 -26 0 -16 -7 -19 -46 -19 -60 0 -74 -16 -74
-83 0 -29 -3 -57 -7 -61 -5 -4 -8 -13 -8 -19 0 -7 -24 -14 -60 -17 -48 -4 -60
-8 -61 -22 0 -10 -1 -45 -2 -78 l-2 -60 -35 0 c-19 0 -35 -4 -35 -10 0 -5 17
-10 39 -10 50 0 101 -10 101 -21 0 -4 -16 -13 -35 -20 l-35 -13 0 -68 c0 -37
-3 -68 -6 -68 -13 0 -34 30 -34 49 0 12 -6 21 -13 21 -7 0 -19 9 -27 20 -8 11
-23 20 -33 20 -9 0 -20 7 -23 15 -7 17 -44 21 -44 5 0 -5 -11 -10 -25 -10 -14
0 -25 5 -25 10 0 6 -25 10 -55 10 -30 0 -55 5 -55 10 0 6 -7 10 -15 10 -8 0
-15 -9 -15 -20 0 -13 -7 -20 -20 -20 -13 0 -20 7 -20 20 0 13 7 20 20 20 11 0
20 5 20 10 0 6 17 10 39 10 67 0 101 11 101 31 0 11 7 19 15 19 9 0 15 9 15
25 0 14 5 25 10 25 6 0 10 9 10 20 0 11 -4 20 -10 20 -5 0 -10 9 -10 21 0 17
4 19 22 13 21 -6 21 -5 9 10 -13 15 -13 19 0 27 8 5 17 9 21 9 13 0 58 47 58
60 0 18 -47 59 -73 64 -99 20 -117 11 -117 -55 0 -40 -17 -69 -41 -69 -13 0
-49 38 -49 53 0 5 -15 6 -34 3 -19 -4 -46 -4 -60 0 -21 5 -25 13 -28 47 l-3
42 -88 3 -87 3 0 -34 c0 -18 7 -42 15 -53 8 -10 15 -31 15 -46 0 -16 5 -28 10
-28 6 0 10 16 10 36 0 31 3 35 23 32 18 -2 22 -9 20 -33 -1 -16 -7 -31 -13
-33 -6 -2 -17 -10 -25 -19 -20 -19 -9 -92 17 -114 25 -22 24 -69 -1 -69 -11 0
-26 -6 -33 -13 -21 -20 -66 -37 -98 -37 -25 0 -30 -4 -30 -25 0 -20 -5 -25
-24 -25 -54 0 -63 -67 -11 -84 17 -6 31 -11 33 -12 6 -4 -23 -44 -31 -44 -10
0 -37 -26 -37 -35 0 -12 -29 -35 -44 -35 -9 0 -16 -4 -16 -10 0 -5 -6 -10 -14
-10 -9 0 -18 22 -26 66 -7 37 -19 68 -26 71 -8 3 -14 20 -14 39 0 19 -4 34
-10 34 -5 0 -10 11 -10 24 0 28 40 46 101 46 22 0 39 5 39 10 0 6 16 10 35 10
24 0 35 5 35 15 0 8 -5 15 -11 15 -5 0 -9 12 -8 28 5 59 2 63 -38 60 -31 -2
-39 -7 -41 -25 -2 -13 -7 -23 -12 -23 -4 0 -10 -9 -13 -20 -3 -14 -14 -20 -31
-20 -22 0 -26 4 -23 23 5 30 18 59 34 75 24 24 14 32 -41 32 -51 0 -55 2 -68
30 -13 30 -33 44 -48 35 -22 -13 -300 -547 -300 -575 0 -17 26 -40 46 -40 9 0
25 9 35 21 16 19 19 19 48 5 34 -18 71 -21 71 -6 0 5 15 16 32 23 39 16 48 8
48 -43 0 -56 -9 -78 -29 -73 -13 3 -20 -2 -24 -17 -10 -38 2 -50 47 -50 23 0
47 -5 54 -12 32 -32 -8 -116 -49 -105 -17 5 -19 1 -13 -30 5 -25 3 -38 -7 -44
-10 -6 -11 -9 -1 -9 18 0 14 -21 -9 -46 l-22 -23 27 -7 c14 -3 26 -10 26 -15
0 -12 47 -11 71 1 11 6 19 21 19 35 0 14 5 25 10 25 6 0 10 9 10 19 0 11 9 23
20 26 16 5 19 12 14 31 -8 30 19 64 51 64 12 0 34 -11 49 -25 29 -27 56 -31
87 -14 14 7 24 7 33 0 9 -8 25 -6 55 7 45 19 60 47 42 80 -6 12 -11 39 -11 62
0 42 -29 89 -38 62 -2 -6 -15 -12 -28 -12 -13 0 -24 -4 -24 -10 0 -5 7 -10 15
-10 9 0 15 -9 15 -25 0 -20 -5 -25 -25 -25 -23 0 -25 4 -25 41 0 51 18 69 70
69 22 0 54 7 70 15 19 10 51 14 89 13 33 -2 62 -1 64 2 3 3 7 19 9 35 3 29 2
30 -47 33 -45 3 -64 13 -65 35 0 4 19 7 43 7 27 0 56 9 82 25 34 21 52 24 128
25 54 0 87 -4 87 -10 0 -6 11 -22 25 -36 30 -30 34 -74 6 -74 -17 0 -20 -11
-26 -95 -4 -53 -4 -118 -1 -145 6 -46 5 -50 -14 -50 -11 0 -25 9 -32 20 -8 12
-24 20 -40 20 -27 0 -28 -2 -28 -55 0 -30 5 -55 10 -55 6 0 10 -5 10 -11 0
-38 -90 -60 -140 -34 -26 13 -36 14 -65 3 -19 -6 -35 -16 -35 -20 0 -4 -15 -8
-32 -8 -74 0 -138 -12 -138 -26 0 -8 8 -14 18 -15 9 -1 26 -2 37 -3 11 -1 44
-3 73 -4 45 -2 52 -5 52 -22 0 -15 -7 -20 -25 -20 -14 0 -25 5 -25 10 0 6 -4
10 -10 10 -5 0 -10 -7 -10 -15 0 -11 -13 -15 -52 -15 -36 0 -48 -3 -38 -9 8
-6 18 -7 23 -4 17 11 25 -20 20 -81 -3 -33 -7 -63 -9 -65 -7 -8 -34 29 -34 48
0 16 -6 21 -25 21 -14 0 -25 -5 -25 -11 0 -6 -7 -17 -15 -26 -12 -12 -19 -12
-30 -3 -16 13 -22 6 -28 -35 -5 -34 -17 -45 -50 -45 -18 0 -40 -7 -50 -15 -18
-13 -18 -15 -2 -42 15 -26 23 -29 65 -30 27 0 53 -4 59 -7 14 -9 3 -34 -20
-41 -19 -6 -27 -45 -9 -45 16 0 12 -76 -5 -90 -8 -6 -22 -10 -32 -8 -15 3 -18
13 -18 55 0 59 -8 72 -31 52 -17 -14 -19 -13 -69 54 -11 15 -25 27 -31 27 -18
0 -74 -56 -74 -73 0 -11 -8 -17 -25 -17 -14 0 -25 5 -25 10 0 6 -11 10 -24 10
-21 0 -24 -5 -23 -27 2 -28 1 -28 -58 -28 l-59 0 -15 38 c-11 30 -12 40 -2 46
18 12 4 36 -29 48 -29 11 -30 12 -25 70 5 54 13 97 36 185 l10 37 62 3 c54 3
62 5 62 23 0 17 -6 20 -50 19 -28 -1 -60 -4 -72 -8 -17 -5 -28 0 -49 23 -18
21 -37 31 -56 31 -22 0 -28 5 -28 21 0 24 -37 89 -50 89 -7 0 -120 -294 -120
-312 0 -5 14 -8 31 -8 17 0 37 -6 45 -14 12 -13 11 -15 -6 -21 -11 -3 -20 -11
-20 -16 0 -5 -17 -9 -38 -9 l-39 0 -41 -132 c-23 -73 -42 -137 -42 -143 0 -6
36 -10 87 -10 84 0 88 -1 91 -22 2 -13 -1 -23 -7 -23 -6 0 -11 -9 -11 -20 0
-11 -4 -20 -10 -20 -5 0 -10 -7 -10 -15 0 -17 56 -55 82 -55 27 0 29 -16 7
-44 -18 -23 -28 -26 -80 -26 -79 0 -149 19 -149 41 0 9 -9 27 -19 40 l-19 23
-11 -39 c-15 -56 -15 -59 19 -73 16 -8 30 -18 30 -24 0 -19 29 -38 60 -38 21
0 30 -4 27 -12 -2 -7 -16 -12 -31 -10 -18 2 -38 -6 -57 -23 -38 -31 -43 -31
-68 1 -12 15 -21 25 -21 22 0 -3 -14 -69 -30 -147 -31 -144 -80 -415 -80 -438
0 -8 13 -13 34 -13 34 0 61 -20 38 -28 -7 -2 -12 -11 -12 -21 0 -9 -14 -25
-30 -35 -23 -13 -29 -23 -25 -37 4 -13 2 -19 -9 -19 -9 0 -16 -4 -16 -10 0 -6
29 -10 68 -10 54 0 71 -4 84 -19 16 -19 15 -21 -9 -46 -23 -23 -32 -25 -72
-20 -25 4 -54 9 -63 12 -10 2 -18 0 -18 -6 0 -5 -3 -16 -6 -24 -3 -10 3 -17
21 -21 l25 -6 -21 -23 c-32 -34 -37 -56 -45 -194 -7 -127 -7 -128 13 -110 24
20 49 21 83 2 50 -28 85 -7 41 25 -11 7 -18 17 -15 21 2 4 7 34 10 66 3 32 8
61 12 65 10 10 92 -28 92 -42 0 -7 18 -11 52 -9 45 3 52 0 59 -20 5 -12 13
-20 19 -16 5 3 28 1 50 -5 38 -10 40 -13 40 -49 l0 -39 83 5 c113 6 127 10
127 33 0 15 7 20 25 20 22 0 25 -4 25 -35 0 -31 -3 -35 -25 -35 -14 0 -25 -4
-25 -10 0 -6 -28 -10 -65 -10 -53 0 -65 -3 -65 -16 0 -10 6 -14 15 -10 18 6
45 -2 45 -15 0 -5 -13 -9 -29 -9 -24 0 -29 -5 -35 -31 -5 -28 -9 -30 -34 -24
-39 8 -60 -15 -44 -50 9 -19 19 -25 42 -25 23 0 31 -5 36 -25 3 -14 8 -25 11
-25 8 0 33 28 33 38 0 6 13 16 30 24 16 7 29 17 29 23 -2 20 14 55 25 55 18 1
56 37 56 54 0 10 9 16 25 16 22 0 25 4 25 34 l0 34 43 -5 c33 -4 48 -1 61 13
17 16 17 19 2 29 -24 18 -20 51 9 72 16 12 22 22 17 31 -10 15 -42 5 -42 -13
0 -8 -24 -14 -70 -19 -56 -5 -81 -2 -127 14 -58 20 -73 33 -73 62 0 13 11 20
40 24 22 4 40 10 40 15 0 12 33 16 51 5 27 -15 49 0 49 34 0 25 -6 33 -28 41
-18 6 -28 17 -29 31 -3 40 -25 78 -44 78 -11 0 -28 -9 -39 -20 -24 -24 -36
-25 -56 -6 -30 31 -4 94 41 98 25 2 31 8 33 32 4 29 23 56 39 56 15 0 14 62
-2 86 -8 13 -15 30 -15 39 0 10 -10 15 -29 15 -16 0 -31 6 -35 15 -7 19 -42
19 -50 0 -3 -8 -17 -15 -31 -15 -22 0 -67 -21 -85 -40 -13 -13 -52 -30 -70
-30 -24 0 -26 15 -3 24 14 6 14 9 -6 27 -12 12 -20 28 -17 36 3 8 6 18 6 23 0
4 16 15 35 24 42 20 45 43 8 52 -16 3 -39 9 -53 14 -14 5 -37 11 -52 14 -26 6
-49 48 -35 63 4 3 41 9 84 14 43 4 79 8 81 8 1 1 2 28 2 61 0 47 4 64 20 80
27 27 86 27 95 0 4 -14 15 -20 36 -20 35 0 59 20 59 49 0 29 14 26 28 -4 13
-29 24 -31 42 -10 8 9 29 15 55 15 46 0 55 -10 55 -56 0 -22 4 -25 33 -22 30
3 32 6 35 44 3 36 -1 46 -32 75 -45 42 -48 69 -7 69 20 0 32 -6 35 -18 4 -11
18 -25 31 -32 22 -12 30 -11 60 3 19 9 34 22 33 29 -2 8 10 14 32 16 19 1 42
5 50 8 13 5 12 7 -3 15 -9 6 -17 19 -17 29 0 11 -4 20 -10 20 -5 0 -10 8 -10
18 0 35 -24 72 -47 72 -13 0 -23 -4 -23 -10 0 -5 -13 -10 -30 -10 -23 0 -30 5
-30 19 0 11 5 23 10 26 6 3 10 15 10 25 0 15 -7 18 -42 16 -43 -3 -68 -10
-100 -27 -10 -5 -24 -9 -33 -9 -19 0 -31 48 -18 69 12 19 71 27 86 12 6 -6 28
-11 48 -11 21 0 44 -7 53 -15 8 -8 28 -15 45 -15 26 0 31 -4 31 -25 0 -31 25
-33 55 -5 19 17 25 18 54 7 28 -10 34 -10 45 6 7 9 22 17 34 17 21 0 85 30 90
43 2 4 21 7 43 7 21 0 39 5 39 10 0 6 18 10 39 10 47 0 101 28 101 53 0 9 7
17 15 17 12 0 15 -17 15 -90 0 -87 1 -90 25 -96 21 -5 25 -12 25 -46 0 -46
-10 -67 -50 -108 -28 -28 -34 -30 -110 -30 -44 0 -80 -3 -80 -7 0 -5 15 -15
33 -24 40 -19 47 -51 15 -67 -45 -22 -101 -42 -119 -42 -19 0 -69 44 -69 60 0
18 -32 10 -62 -15 -16 -14 -36 -25 -44 -25 -8 0 -24 -9 -36 -20 -15 -14 -36
-20 -68 -20 -57 0 -77 -21 -86 -90 -4 -30 -12 -50 -19 -50 -19 0 -27 -30 -14
-47 9 -11 6 -20 -17 -43 -25 -25 -37 -29 -81 -30 -41 0 -53 -3 -53 -16 0 -33
69 -71 99 -54 18 9 36 37 33 52 -1 3 5 12 13 18 8 7 15 21 15 31 0 11 5 19 10
19 6 0 10 -4 10 -10 0 -5 7 -10 15 -10 8 0 15 -5 15 -11 0 -11 24 -39 34 -39
3 0 6 15 6 34 0 31 3 34 38 40 62 10 63 9 60 -34 -2 -22 1 -38 7 -37 14 3 13
129 -2 145 -6 6 -21 12 -32 12 -12 0 -21 5 -21 11 0 14 -25 39 -39 39 -6 0
-11 9 -11 20 0 18 7 20 60 20 l60 0 0 -55 0 -55 35 0 c19 0 35 -4 35 -10 0 -5
16 -10 35 -10 19 0 35 -4 35 -9 0 -7 69 -41 84 -41 1 0 14 9 27 21 21 18 32
20 91 14 59 -6 68 -5 68 9 0 9 -4 16 -10 16 -11 0 -50 40 -50 53 0 4 8 6 18 3
21 -7 54 13 35 21 -18 7 -16 61 1 79 23 22 42 17 79 -21 35 -36 55 -43 74 -24
9 9 18 5 37 -14 22 -22 27 -38 31 -98 3 -53 9 -75 22 -84 10 -7 21 -11 25 -9
5 3 8 0 8 -6 0 -6 4 -8 10 -5 5 3 10 1 10 -4 0 -10 -5 -12 -25 -11 -20 1 -63
-33 -67 -54 -4 -21 -1 -25 34 -30 48 -8 88 -43 67 -60 -8 -6 -19 -20 -25 -31
-15 -26 -48 -22 -80 10 -21 21 -24 28 -13 41 19 23 -4 41 -33 26 -13 -6 -34
-12 -48 -14 -30 -4 -40 -47 -16 -71 26 -25 20 -57 -9 -57 -20 0 -25 5 -25 24
0 19 -8 27 -35 36 -19 6 -39 9 -45 5 -17 -10 -11 -44 10 -57 24 -15 27 -48 4
-48 -9 0 -23 -8 -30 -17 -13 -17 -13 -17 -14 0 0 9 -7 17 -15 17 -8 0 -15 5
-15 10 0 6 -9 10 -20 10 -11 0 -20 -4 -20 -10 0 -14 -68 -12 -72 2 -3 9 -12 9
-36 -1 -38 -16 -41 -36 -7 -45 44 -11 24 -36 -57 -72 -44 -19 -53 -54 -15 -54
57 0 97 13 97 30 0 10 7 21 16 24 25 10 74 7 74 -4 0 -5 -7 -10 -15 -10 -8 0
-15 -4 -15 -9 0 -5 -14 -12 -30 -16 -35 -8 -44 -45 -10 -45 11 0 20 -7 20 -15
0 -8 -9 -15 -20 -15 -11 0 -20 -4 -20 -10 0 -5 -5 -10 -11 -10 -12 0 -39 -25
-39 -37 0 -4 -11 -20 -25 -35 -20 -22 -25 -37 -25 -82 0 -30 5 -58 11 -62 7
-4 43 -9 81 -12 83 -6 122 9 114 44 -4 13 0 29 9 38 8 8 15 20 15 26 0 6 12
10 28 8 36 -4 44 -51 13 -80 -27 -24 -20 -35 29 -48 40 -11 42 -14 80 -105 5
-11 12 -39 15 -62 6 -37 4 -43 -17 -54 -13 -7 -36 -15 -53 -18 -21 -5 -34 -16
-44 -39 -12 -25 -21 -32 -43 -32 -21 0 -28 -5 -28 -19 0 -11 -20 -40 -45 -65
-47 -48 -59 -86 -27 -86 10 0 24 -9 32 -20 8 -11 20 -20 27 -20 8 0 13 -13 13
-34 0 -33 -1 -33 -52 -39 -41 -5 -54 -3 -61 8 -10 19 -27 19 -27 0 0 -8 -12
-17 -27 -20 -46 -10 -58 -21 -61 -56 -2 -26 -10 -38 -33 -51 -26 -15 -28 -20
-19 -38 6 -11 17 -20 24 -20 32 0 61 -63 34 -73 -10 -3 -10 -8 1 -21 13 -15
13 -19 1 -26 -8 -5 -11 -12 -8 -15 4 -4 17 2 29 14 13 12 31 21 40 21 26 0 30
13 13 44 -7 16 -14 43 -14 61 0 18 -6 35 -12 37 -9 3 -8 9 4 21 18 18 48 23
48 8 0 -6 39 -7 94 -4 57 4 106 2 125 -5 29 -10 31 -9 31 13 0 47 6 51 73 44
68 -7 77 -5 77 16 0 7 9 17 20 20 11 3 20 11 20 16 0 5 6 9 14 9 7 0 19 6 25
14 8 10 23 13 47 9 31 -5 34 -4 34 21 0 23 4 26 35 26 32 0 35 -3 35 -29 0
-29 14 -41 51 -41 23 0 26 -35 4 -44 -8 -3 -15 -15 -15 -26 0 -11 -4 -20 -10
-20 -17 0 -11 -42 8 -56 22 -17 49 -18 55 -1 8 18 27 -12 27 -43 l0 -25 25 29
c14 16 27 27 30 25 2 -3 7 -23 11 -46 l6 -41 -48 -4 c-27 -3 -53 -1 -59 3 -5
4 -34 -3 -62 -15 -51 -21 -52 -22 -33 -39 11 -9 28 -17 38 -17 9 0 23 -4 31
-9 11 -7 10 -13 -7 -31 -11 -12 -23 -38 -27 -57 -3 -20 -13 -43 -22 -51 -13
-14 -19 -13 -59 6 -25 12 -53 22 -64 22 -24 0 -48 39 -30 50 6 4 10 20 8 35
-4 37 -28 46 -28 11 0 -19 -5 -26 -19 -26 -11 0 -21 4 -23 9 -1 5 -12 11 -23
13 -15 2 -21 -3 -23 -20 -3 -17 -8 -21 -23 -17 -27 9 -59 -3 -59 -22 0 -13 9
-14 53 -9 42 6 56 4 67 -8 7 -9 26 -16 42 -16 29 0 30 -2 24 -31 -3 -16 -2
-36 4 -42 5 -7 25 -30 44 -52 18 -22 35 -47 36 -55 6 -40 -2 -60 -27 -72 -26
-13 -28 -18 -27 -66 1 -29 -2 -52 -7 -52 -15 0 -10 -17 16 -57 51 -77 57 -83
86 -83 16 0 29 -4 29 -9 0 -28 140 -40 167 -14 26 24 15 50 -22 57 -31 6 -35
11 -35 36 0 17 5 30 10 30 13 0 64 49 57 56 -2 3 -28 7 -57 11 -76 9 -100 34
-100 107 0 43 3 56 15 56 10 0 15 11 15 35 0 19 5 35 10 35 6 0 10 -16 10 -35
0 -33 2 -35 34 -35 40 0 47 7 36 35 -6 18 16 76 33 83 4 2 7 17 7 33 0 29 0
29 58 27 56 -3 57 -2 60 25 2 19 9 27 23 27 10 0 19 -4 19 -10 0 -5 7 -10 15
-10 8 0 15 -7 15 -15 0 -8 -7 -15 -16 -15 -14 0 -15 -7 -10 -42 4 -24 11 -44
16 -46 6 -2 10 -24 10 -48 0 -37 3 -44 20 -44 18 0 20 -7 20 -60 0 -33 -4 -60
-10 -60 -5 0 -10 -16 -10 -35 0 -35 0 -35 -45 -35 -41 0 -45 -2 -45 -25 0 -16
-6 -25 -15 -25 -8 0 -15 -4 -15 -10 0 -5 -9 -10 -20 -10 -13 0 -20 -7 -20 -20
0 -11 5 -20 10 -20 6 0 10 -7 10 -15 0 -10 10 -15 31 -15 27 0 59 -19 59 -34
0 -3 -25 -6 -55 -6 -52 0 -55 -1 -55 -25 0 -14 -6 -25 -13 -25 -7 0 -19 -9
-27 -20 -8 -11 -21 -20 -30 -20 -24 0 -50 -37 -50 -69 0 -16 -6 -32 -12 -35
-10 -5 -10 -7 0 -12 8 -4 12 -29 12 -75 l0 -69 -23 14 c-28 19 -67 10 -67 -15
0 -12 -7 -19 -20 -19 -27 0 -25 -18 6 -45 l26 -22 -24 -28 -24 -28 -20 24
c-12 16 -30 24 -52 25 -44 2 -82 23 -82 46 0 11 -7 18 -20 18 -16 0 -20 -7
-20 -30 0 -16 4 -30 8 -30 5 0 15 -11 22 -25 7 -14 20 -25 28 -25 11 0 13 -8
9 -35 -5 -33 -4 -35 24 -35 25 0 29 3 24 19 -3 10 -2 26 1 35 13 34 24 -7 18
-67 -6 -50 -5 -57 10 -51 10 4 16 18 16 35 0 24 4 29 25 29 22 0 25 -4 25 -35
0 -24 -5 -35 -15 -35 -10 0 -15 -10 -15 -31 0 -17 -6 -37 -14 -45 -19 -18 -24
-18 -29 4 -3 12 -5 11 -6 -6 -1 -15 -9 -26 -21 -29 -12 -3 -20 -14 -20 -27 0
-13 -3 -26 -7 -30 -4 -3 -8 -15 -10 -26 -2 -14 3 -20 17 -20 11 0 20 -5 20
-11 0 -7 9 -9 23 -6 37 10 50 -5 35 -39 -7 -16 -17 -32 -22 -36 -6 -4 -1 -15
12 -26 12 -11 22 -24 22 -31 0 -6 10 -11 23 -11 14 0 26 -10 34 -27 15 -32 17
-103 3 -103 -5 0 -10 -11 -10 -25 0 -14 5 -25 10 -25 6 0 10 -7 10 -15 0 -9 7
-18 15 -21 8 -4 15 -12 15 -20 0 -8 9 -14 20 -14 18 0 20 -7 20 -56 0 -50 -2
-55 -18 -49 -37 16 -69 17 -85 1 -20 -20 -13 -40 19 -54 55 -26 10 -72 -70
-72 -30 0 -56 4 -58 9 -1 5 -18 12 -35 16 -26 5 -33 3 -33 -9 0 -9 7 -16 15
-16 33 0 7 -70 -27 -70 -7 0 -21 -7 -31 -14 -20 -15 -17 -22 31 -71 6 -8 12
-18 12 -24 0 -6 12 -10 28 -9 45 3 72 -28 72 -84 0 -63 -18 -62 -26 2 -4 27
-9 50 -13 50 -19 -1 -30 -20 -31 -60 -3 -63 -2 -70 15 -70 8 0 15 -4 15 -10 0
-5 -9 -10 -20 -10 -11 0 -20 5 -20 10 0 6 -9 10 -20 10 -24 0 -25 -4 -4 -35
10 -16 14 -34 10 -50 -6 -22 -12 -25 -51 -25 -41 0 -45 -2 -45 -24 0 -13 -6
-27 -12 -29 -10 -4 -9 -8 2 -16 13 -10 13 -12 0 -21 -8 -5 -25 -10 -37 -10
-13 0 -23 -4 -23 -10 0 -5 7 -10 15 -10 12 0 15 -13 15 -55 0 -42 -3 -55 -15
-55 -8 0 -15 -7 -15 -15 0 -10 -10 -15 -30 -15 -16 0 -30 5 -30 10 0 19 -42
10 -47 -10 -3 -11 -12 -20 -19 -20 -16 0 -19 -36 -4 -45 6 -3 10 1 10 9 0 11
10 16 33 16 19 0 37 -3 40 -7 11 -10 -24 -43 -45 -43 -10 0 -18 -4 -18 -10 0
-13 -57 -13 -65 0 -3 5 -1 10 4 10 6 0 11 5 11 11 0 6 -13 1 -29 -10 -16 -12
-36 -21 -45 -21 -19 0 -22 -46 -4 -52 9 -3 8 -10 -5 -23 -16 -15 -20 -16 -27
-4 -5 7 -12 10 -16 6 -4 -3 -2 -12 4 -19 8 -10 4 -16 -14 -25 -19 -9 -24 -8
-24 3 0 8 -7 14 -16 14 -11 0 -14 -6 -9 -20 5 -17 2 -20 -25 -20 -28 0 -30 2
-20 20 10 18 8 20 -27 20 -29 0 -34 -3 -25 -12 27 -27 7 -72 -35 -74 -15 0
-43 -2 -61 -2 l-34 -2 27 -48 c84 -144 264 -405 429 -617 301 -388 713 -811
1100 -1127 561 -459 1206 -835 1891 -1103 455 -178 963 -315 1445 -389 394
-61 661 -81 1090 -81 366 0 543 11 865 51 485 60 858 143 1325 296 689 225
1368 576 1959 1011 213 157 571 456 571 477 0 5 -7 15 -15 24 -8 8 -15 28 -15
45 0 17 -4 31 -8 31 -5 0 -15 11 -22 25 -8 16 -22 25 -37 25 -16 0 -27 9 -35
28 -19 43 -39 62 -67 62 -38 1 -61 23 -61 59 0 17 -5 31 -11 31 -6 0 -25 11
-43 25 -18 14 -38 25 -45 25 -17 0 -41 25 -41 42 0 7 -12 25 -27 39 -16 14
-42 42 -59 61 -17 20 -44 44 -60 54 -16 11 -36 26 -44 35 -8 9 -40 25 -70 35
-30 10 -62 26 -70 35 -8 9 -49 28 -90 42 -108 37 -142 53 -167 76 -12 12 -26
21 -31 21 -4 0 -30 14 -56 30 -27 17 -61 34 -77 37 -16 3 -29 10 -29 14 0 17
-61 47 -108 53 -26 3 -60 15 -77 26 -16 11 -40 20 -51 20 -12 0 -27 7 -34 15
-7 8 -23 15 -36 15 -13 0 -24 5 -24 10 0 6 -9 10 -20 10 -11 0 -20 5 -20 10 0
6 -12 10 -27 10 -16 0 -37 7 -47 15 -11 8 -30 15 -43 15 -21 0 -59 16 -73 30
-9 9 -55 28 -80 34 -14 3 -35 14 -47 26 -12 11 -35 20 -51 20 -42 0 -141 51
-190 99 -23 22 -47 41 -53 41 -14 0 -132 98 -140 116 -4 9 -84 64 -94 64 -3 0
-11 5 -18 10 -34 29 -90 60 -108 60 -11 0 -54 11 -95 25 -53 18 -96 25 -149
25 -40 0 -76 4 -80 10 -3 5 -32 12 -63 16 l-58 6 0 37 c-1 20 -11 62 -22 94
-18 48 -21 74 -17 160 7 183 38 383 75 487 7 19 17 47 23 63 6 16 17 27 28 27
10 0 24 8 31 18 19 25 64 52 87 52 40 0 70 23 86 65 11 28 27 47 49 59 36 19
56 51 57 94 0 15 4 36 8 47 5 11 4 25 -1 32 -14 17 15 67 48 82 16 7 34 21 42
32 7 10 19 19 27 19 7 0 20 6 27 14 8 7 28 21 45 30 17 8 34 25 38 36 3 11 13
20 21 20 8 0 14 5 14 10 0 6 7 10 16 10 8 0 28 13 42 28 92 95 132 142 132
151 0 6 10 11 23 11 13 0 31 11 42 27 11 15 28 34 38 42 10 9 28 24 39 34 12
9 24 17 28 17 15 0 90 83 90 100 0 5 4 10 8 10 4 0 16 14 26 30 11 19 29 33
47 37 18 3 29 12 29 22 0 17 30 59 65 91 82 77 135 140 135 161 0 38 50 126
99 177 29 28 56 52 61 52 6 0 10 9 10 20 0 11 7 23 15 26 8 4 15 15 15 25 0
12 5 16 15 13 28 -11 45 21 45 85 0 56 -2 61 -25 67 -14 3 -25 9 -25 13 0 4
11 18 25 31 14 13 25 29 25 37 0 7 5 13 10 13 15 0 12 88 -2 92 -10 4 -9 14 4
44 24 60 41 169 40 266 0 72 3 92 19 112 20 26 25 71 9 81 -19 12 -10 55 15
77 14 12 25 29 25 37 0 27 31 105 48 125 15 16 17 45 17 210 0 167 -2 195 -17
209 -9 9 -24 17 -32 17 -9 0 -16 6 -16 14 0 8 -4 16 -10 18 -28 9 -26 448 1
448 5 0 9 11 9 24 0 18 6 25 23 28 16 2 26 15 39 53 10 28 21 58 24 68 4 9 14
17 24 17 13 0 19 11 23 42 3 24 11 44 16 46 6 2 11 10 11 17 0 8 8 20 18 27
14 11 17 33 20 132 3 115 -7 176 -29 176 -5 0 -9 11 -9 25 0 15 -7 28 -17 32
-28 10 -53 40 -53 63 0 11 -4 20 -10 20 -5 0 -10 6 -10 14 0 18 -32 76 -42 76
-5 0 -8 7 -8 15 0 8 -5 15 -11 15 -8 0 -8 4 0 14 9 11 9 20 2 35 -14 25 -14
68 -1 76 6 3 10 1 10 -4 0 -6 5 -11 10 -11 6 0 10 5 10 11 0 27 33 79 51 79
11 0 19 7 19 15 0 8 -4 15 -10 15 -5 0 -10 9 -10 20 0 11 -6 20 -14 20 -8 0
-18 14 -22 32 -8 40 -34 98 -51 116 -16 17 -16 30 -1 87 14 51 7 63 -52 93
-27 13 -37 26 -45 59 -5 23 -13 45 -17 49 -5 4 -8 16 -8 26 0 10 -6 18 -14 18
-22 0 -40 30 -42 69 -3 53 -15 101 -25 101 -5 0 -9 29 -9 65 0 57 -2 65 -19
65 -11 0 -21 -4 -23 -9 -3 -10 -22 -14 -50 -12 -15 1 -18 11 -18 57 0 62 -12
81 -58 90 -17 3 -40 19 -52 36 -12 16 -27 27 -33 25 -19 -7 -47 12 -47 32 0
10 -7 24 -15 31 -8 7 -15 18 -15 24 0 16 -46 56 -64 56 -17 0 -26 22 -26 64 0
73 -44 163 -110 227 -26 25 -52 55 -58 66 -6 11 -27 31 -46 44 -19 13 -41 34
-47 47 -7 12 -23 25 -35 28 -13 3 -30 17 -39 30 -8 13 -22 24 -30 24 -20 0
-35 32 -28 60 7 26 -28 59 -63 60 -37 0 -74 24 -74 48 0 12 -4 22 -10 22 -5 0
-10 9 -10 20 0 11 -4 20 -9 20 -5 0 -12 11 -15 25 -7 29 -40 34 -50 9 -4 -9
-9 -14 -13 -10 -7 6 81 96 95 96 4 0 25 16 46 35 22 19 47 35 56 35 9 0 26 9
38 20 12 11 25 20 30 20 18 0 102 62 102 76 0 23 -109 18 -140 -6 -14 -11 -33
-20 -43 -20 -22 0 -77 -37 -77 -51 0 -15 -23 -35 -47 -43 -12 -4 -39 -25 -61
-46 -22 -22 -44 -40 -50 -40 -5 0 -15 -7 -22 -15 -22 -26 -58 -18 -76 18 -9
17 -26 38 -37 46 -26 18 -110 61 -120 61 -4 0 -28 20 -54 45 -25 25 -53 45
-62 45 -10 0 -30 13 -44 30 -15 16 -39 33 -54 36 -16 4 -36 15 -46 26 -11 11
-30 23 -43 28 -17 7 -24 17 -24 36 0 16 -16 48 -39 78 -22 28 -43 64 -47 80
-4 16 -17 39 -29 50 -12 12 -27 38 -34 60 -8 23 -38 63 -76 102 -35 35 -70 76
-77 91 -8 17 -23 29 -37 31 -21 3 -23 1 -17 -25 3 -15 9 -43 12 -60 4 -18 11
-33 15 -33 5 0 9 -9 9 -20 0 -13 7 -20 19 -20 11 0 23 -12 31 -31 7 -17 19
-37 27 -44 7 -8 15 -31 16 -52 2 -32 -1 -38 -18 -41 -25 -3 -75 49 -75 78 0
11 -4 20 -10 20 -5 0 -12 16 -16 35 -4 23 -17 43 -35 56 -16 11 -29 25 -29 30
0 14 -20 33 -43 42 -9 3 -22 19 -28 33 -5 15 -19 35 -30 45 -11 9 -22 28 -23
41 -6 42 -26 84 -48 98 -30 21 -68 60 -68 69 0 5 -13 14 -29 21 -17 7 -32 22
-35 36 -6 22 -12 24 -61 24 -37 0 -55 -4 -55 -12 -1 -7 -9 -3 -19 10 -11 12
-23 22 -29 22 -5 0 -25 11 -44 24 -36 24 -72 27 -130 11 -18 -5 -28 -3 -28 4
0 6 7 11 15 11 20 0 38 37 31 66 -5 17 -13 24 -32 24 -32 0 -88 23 -115 48
-11 11 -37 22 -57 25 -36 4 -55 10 -156 49 -34 12 -52 15 -56 8 -4 -7 -50 -11
-121 -11 -63 1 -123 1 -134 0 -11 0 -21 5 -23 11 -2 5 -8 10 -13 10 -14 0 -11
-33 7 -58 8 -12 13 -26 10 -31 -8 -12 -88 -51 -105 -51 -8 0 -21 -8 -30 -18
-23 -25 -67 -52 -86 -52 -8 0 -15 -9 -15 -20 0 -11 -4 -20 -10 -20 -5 0 -10
-7 -10 -15 0 -17 -26 -21 -32 -5 -4 13 -136 25 -171 16 -16 -4 -29 -17 -35
-36 -8 -23 -17 -30 -36 -30 -31 0 -32 7 -6 40 11 14 20 30 20 36 0 18 -27 25
-55 14 -24 -9 -25 -12 -19 -65 7 -55 7 -55 -21 -55 -15 0 -40 11 -57 25 -25
21 -40 25 -98 25 -63 0 -69 -2 -72 -22 -2 -18 -12 -25 -43 -31 -22 -4 -52 -10
-67 -14 -16 -3 -28 -12 -28 -20 0 -20 -40 -52 -66 -53 -11 0 -31 -12 -45 -26
-13 -15 -44 -35 -69 -46 -24 -11 -47 -22 -50 -26 -3 -4 -34 -20 -70 -37 -36
-16 -67 -33 -70 -36 -3 -3 -21 -14 -40 -25 -19 -10 -41 -27 -48 -36 -7 -10
-22 -18 -33 -18 -19 0 -101 -48 -107 -62 -2 -5 -10 -8 -18 -8 -8 0 -14 -4 -14
-10 0 -5 -18 -13 -39 -16 -22 -4 -49 -15 -60 -25 -11 -11 -26 -19 -34 -19 -8
0 -40 -9 -73 -21 -32 -11 -72 -24 -89 -29 -49 -14 -175 -59 -209 -74 -17 -8
-56 -17 -86 -20 -122 -11 -290 -42 -304 -56 -5 -5 -24 -10 -41 -10 -19 0 -39
-8 -50 -20 -13 -15 -22 -17 -36 -10 -33 18 -99 9 -99 -13 0 -11 -79 -87 -91
-87 -3 0 -19 -11 -35 -25 -16 -14 -34 -25 -40 -25 -6 0 -20 -11 -30 -25 -10
-14 -29 -25 -41 -25 -13 0 -23 -4 -23 -10 0 -5 -8 -10 -18 -10 -10 0 -26 -15
-37 -32 -22 -39 -44 -57 -67 -58 -22 0 -23 17 -3 64 13 31 19 36 43 33 20 -3
34 3 52 23 14 15 36 31 50 35 14 4 32 16 41 26 9 11 25 19 37 19 12 0 22 8 25
21 4 14 2 19 -8 15 -11 -4 -25 13 -25 30 0 2 22 4 50 4 38 0 52 4 59 19 14 25
5 31 -41 31 -27 0 -38 -4 -38 -15 0 -10 -10 -15 -30 -15 -17 0 -38 -4 -48 -9
-9 -5 -27 -13 -40 -18 l-23 -8 21 -23 c20 -21 20 -23 3 -28 -42 -14 -66 -30
-74 -51 -13 -35 -44 -26 -50 15 -4 20 20 43 59 58 1 1 -4 28 -12 61 -22 96
-78 134 -92 63 -5 -25 -11 -30 -34 -30 -18 0 -30 7 -38 23 -10 21 -11 21 -17
-10 -4 -18 -12 -33 -17 -33 -31 0 -98 24 -98 36 0 7 17 29 37 49 28 27 34 38
25 47 -7 7 -12 20 -12 29 0 10 -4 19 -10 21 -5 2 -16 19 -24 39 -15 36 -15 37
19 72 19 20 35 40 35 44 0 5 8 13 19 20 10 6 21 25 24 42 5 26 11 31 35 31 23
0 71 35 60 45 -9 8 -81 23 -92 19 -12 -5 -26 23 -26 52 0 6 18 14 40 18 22 3
40 11 40 16 0 6 7 10 16 10 11 0 14 -6 9 -20 -5 -14 -2 -20 9 -20 9 0 16 -4
16 -8 0 -4 18 -9 40 -10 35 -3 40 0 40 19 0 12 8 23 20 26 21 6 57 69 46 81
-4 3 -11 0 -16 -8 -6 -8 -10 -10 -10 -4 0 6 -21 18 -47 27 -45 15 -46 17 -23
24 22 7 20 9 -20 14 l-45 6 42 1 c24 1 45 8 50 16 4 8 17 15 28 17 17 4 20 13
23 62 3 55 2 57 -23 57 -18 0 -25 -5 -25 -20 0 -15 -7 -20 -29 -20 -53 0 -61
8 -61 60 0 27 5 52 10 55 6 3 10 20 10 37 0 25 -3 29 -17 23 -10 -4 -25 -9
-34 -12 -9 -3 -22 -16 -29 -29 -8 -13 -22 -24 -32 -24 -11 0 -28 -5 -40 -11
-11 -6 -23 -7 -26 -3 -4 4 -1 9 6 11 6 3 12 21 12 41 0 21 4 44 9 51 12 19 -3
48 -42 82 -27 23 -28 28 -17 50 7 13 21 31 31 40 10 8 21 27 24 41 4 15 13 29
20 32 9 3 12 20 8 58 -2 34 -1 48 5 39 7 -10 29 -12 93 -7 46 3 103 5 125 5
24 0 48 7 57 16 9 8 20 15 26 15 17 0 13 27 -4 34 -8 3 -15 16 -15 29 0 13 -4
27 -10 33 -6 6 -1 22 15 46 17 25 25 51 25 80 0 24 5 49 11 55 13 13 8 55 -6
59 -5 2 -95 -41 -200 -94z m22 -174 c-3 -8 -6 -5 -6 6 -1 11 2 17 5 13 3 -3 4
-12 1 -19z m3543 -538 c0 -5 -4 -10 -10 -10 -5 0 -10 5 -10 10 0 6 5 10 10 10
6 0 10 -4 10 -10z m-3780 -66 c0 -8 9 -22 20 -31 21 -18 27 -53 10 -53 -5 0
-10 -4 -10 -9 0 -6 20 -13 45 -17 61 -9 57 -24 -5 -24 -36 0 -52 4 -56 15 -4
8 -12 15 -20 15 -8 0 -14 5 -14 10 0 6 5 10 10 10 6 0 10 5 10 10 0 6 -16 10
-35 10 -28 0 -35 -4 -35 -20 0 -11 -7 -20 -15 -20 -19 0 -19 14 -1 33 8 8 16
29 18 48 2 24 10 37 28 46 26 13 50 2 50 -23z m3491 7 c13 -12 31 -21 40 -21
49 0 67 -34 27 -49 -26 -9 -58 -3 -58 11 0 24 -32 40 -71 35 -29 -4 -39 -2
-39 9 0 18 -10 18 -24 0 -6 -8 -24 -16 -41 -18 -26 -3 -30 1 -33 24 -4 31 10
35 115 32 47 -2 67 -7 84 -23z m-61 -101 c0 -5 -9 -10 -20 -10 -11 0 -20 5
-20 10 0 6 9 10 20 10 11 0 20 -4 20 -10z m-4190 -56 c0 -7 -3 -20 -6 -29 -10
-25 -24 2 -24 45 1 33 2 34 15 16 8 -11 15 -25 15 -32z m733 -16 c15 -7 27
-15 27 -18 0 -3 -16 -13 -34 -22 -37 -18 -46 -12 -46 33 0 22 15 24 53 7z
m132 2 c-3 -5 -10 -10 -16 -10 -5 0 -9 5 -9 10 0 6 7 10 16 10 8 0 12 -4 9
-10z m-855 -142 c0 -4 -11 -8 -25 -8 -28 0 -30 3 -14 32 11 21 12 21 25 3 8
-10 14 -22 14 -27z m-230 -58 c0 -11 -4 -20 -10 -20 -5 0 -10 9 -10 20 0 11 5
20 10 20 6 0 10 -9 10 -20z m5620 -222 c0 -5 -4 -8 -10 -8 -5 0 -10 10 -10 23
0 18 2 19 10 7 5 -8 10 -18 10 -22z m-5620 -63 c0 -8 -7 -15 -15 -15 -9 0 -12
6 -9 15 4 8 10 15 15 15 5 0 9 -7 9 -15z m-13 -62 c-3 -10 -5 -4 -5 12 0 17 2
24 5 18 2 -7 2 -21 0 -30z m20 15 c-3 -8 -6 -5 -6 6 -1 11 2 17 5 13 3 -3 4
-12 1 -19z m1083 -268 c0 -32 -11 -50 -31 -50 -17 0 -19 -9 -19 -100 l0 -100
-30 0 -30 0 0 90 c0 73 -3 90 -15 90 -8 0 -15 7 -15 15 0 8 4 15 8 15 4 0 9
12 10 27 3 35 10 39 71 35 41 -3 51 -7 51 -22z m50 -10 c0 -5 -7 -10 -15 -10
-8 0 -15 5 -15 10 0 6 7 10 15 10 8 0 15 -4 15 -10z m-280 -80 c-13 -23 -36
-26 -56 -6 -21 22 -17 26 26 26 38 0 40 -2 30 -20z m-717 -177 c-7 -2 -19 -2
-25 0 -7 3 -2 5 12 5 14 0 19 -2 13 -5z m897 -82 c0 -5 9 -13 20 -16 15 -5 20
-15 20 -42 0 -28 -3 -34 -16 -29 -9 3 -20 6 -25 6 -11 0 -28 60 -21 78 5 14
22 16 22 3z m3128 -23 c7 -7 12 -28 13 -47 0 -20 4 -45 8 -56 8 -21 -5 -75
-18 -75 -12 0 -31 -48 -31 -75 0 -13 -11 -35 -25 -49 -31 -31 -35 -86 -7 -86
34 0 72 68 72 127 0 17 5 24 18 22 42 -6 136 24 165 52 16 16 35 29 42 29 7 0
15 7 17 15 2 9 8 11 16 6 16 -9 5 -41 -14 -41 -16 0 -18 -9 -6 -27 6 -9 17
-10 45 -2 20 5 39 14 42 18 3 5 22 1 43 -9 23 -11 41 -15 46 -9 6 5 14 9 18 9
13 0 9 -28 -4 -32 -9 -3 -8 -9 4 -21 18 -18 58 -23 58 -7 0 6 20 10 45 10 37
0 47 -4 62 -26 15 -24 21 -26 82 -22 l66 3 18 -37 c10 -21 25 -38 33 -38 13 0
18 -13 26 -65 3 -16 10 -19 36 -17 24 1 34 -3 38 -15 14 -43 39 -81 64 -98 31
-21 60 -64 60 -89 0 -9 3 -16 8 -16 4 0 13 -13 20 -28 11 -25 70 -62 99 -62 6
0 13 -9 16 -20 3 -11 12 -20 19 -20 9 0 18 -17 24 -47 6 -33 14 -49 27 -51 10
-2 17 3 17 12 0 9 5 16 10 16 6 0 10 -7 10 -15 0 -8 5 -15 11 -15 7 0 9 -11 6
-29 -8 -40 22 -99 81 -153 12 -12 22 -27 22 -33 0 -24 80 -55 141 -55 32 0 59
-3 59 -7 0 -5 16 -25 35 -46 53 -58 85 -102 85 -119 0 -9 7 -18 15 -22 14 -5
55 -63 55 -77 0 -9 -47 -21 -83 -23 -22 -1 -29 4 -34 24 -10 41 -53 130 -63
130 -5 0 -14 -8 -19 -18 -7 -13 -4 -23 14 -40 12 -12 25 -35 28 -51 4 -17 16
-40 27 -51 13 -13 20 -33 20 -59 0 -21 8 -49 18 -62 28 -39 40 -70 47 -128 6
-55 19 -90 38 -103 6 -3 9 -26 7 -50 -8 -105 -4 -123 42 -170 24 -25 52 -62
63 -84 20 -38 51 -74 65 -74 4 0 30 -22 58 -50 28 -27 55 -50 60 -50 4 0 18
-17 30 -38 26 -47 56 -82 70 -82 6 0 21 -15 33 -32 13 -18 31 -40 41 -49 10
-9 18 -21 18 -28 0 -6 11 -21 25 -33 14 -12 25 -27 25 -34 0 -7 12 -22 28 -33
26 -20 26 -20 4 -21 -36 0 -37 -26 -3 -65 36 -41 48 -79 32 -99 -9 -11 -9 -16
0 -21 7 -5 9 -21 5 -46 -5 -29 -2 -44 11 -58 49 -53 54 -71 28 -97 -17 -18
-11 -61 16 -116 11 -21 19 -46 19 -56 0 -11 7 -25 15 -32 8 -7 15 -17 15 -22
0 -25 74 -68 117 -68 17 0 33 -8 41 -20 7 -11 23 -20 36 -20 14 0 28 -4 31
-10 13 -21 99 -9 150 20 28 16 67 37 88 47 20 10 37 21 37 25 0 5 12 8 26 8
14 0 38 9 53 19 36 26 104 19 118 -13 22 -47 31 -86 22 -92 -13 -8 -11 -48 3
-62 30 -30 78 -3 78 43 0 36 26 77 56 92 28 13 67 -2 99 -37 10 -11 25 -20 34
-20 9 0 23 -9 31 -21 8 -11 29 -36 46 -54 17 -19 44 -59 60 -90 16 -30 32 -55
37 -55 4 0 7 -6 7 -13 0 -8 6 -27 14 -43 8 -16 17 -58 21 -94 4 -36 13 -87 21
-115 22 -79 -2 -292 -37 -331 -11 -11 -19 -27 -19 -36 0 -9 -3 -18 -7 -20 -11
-4 -63 -110 -63 -125 0 -7 -4 -13 -10 -13 -5 0 -10 -11 -10 -25 0 -14 -4 -25
-8 -25 -5 0 -17 -16 -28 -35 -10 -19 -22 -35 -26 -35 -5 0 -8 -9 -8 -19 0 -11
-4 -23 -10 -26 -5 -3 -10 -13 -10 -21 0 -8 -5 -20 -11 -27 -18 -21 -108 -162
-109 -170 0 -7 -9 -19 -67 -82 -13 -13 -23 -27 -23 -30 0 -15 -198 -197 -220
-202 -14 -3 -31 -15 -38 -25 -7 -10 -24 -18 -38 -18 -14 0 -32 -6 -39 -12 -35
-31 -45 -38 -58 -38 -7 0 -18 -5 -23 -10 -11 -11 -347 -15 -364 -5 -5 3 -51
10 -102 16 -134 14 -172 21 -178 29 -3 5 -31 11 -62 15 -50 6 -58 5 -58 -9 0
-11 9 -16 31 -16 22 0 32 -5 36 -19 3 -12 17 -23 35 -26 16 -4 32 -13 34 -20
3 -7 21 -16 40 -19 39 -8 42 -16 14 -41 l-20 -18 20 -19 c24 -22 25 -41 5 -62
-8 -8 -15 -27 -15 -41 0 -23 -30 -79 -51 -95 -3 -3 -9 -25 -13 -50 -4 -25 -13
-54 -19 -65 -7 -11 -21 -47 -32 -80 -11 -33 -28 -69 -37 -79 -10 -11 -18 -23
-18 -27 0 -4 -9 -9 -20 -12 -22 -6 -24 -23 -22 -212 1 -72 -1 -84 -8 -60 -6
17 -8 40 -5 52 6 27 -13 41 -22 16 -4 -10 -15 -26 -26 -35 -12 -11 -17 -24
-12 -37 4 -14 0 -26 -14 -37 -10 -9 -17 -23 -14 -30 3 -8 -2 -14 -11 -14 -9 0
-16 -7 -16 -15 0 -8 5 -15 10 -15 6 0 10 -7 10 -15 0 -9 7 -27 16 -40 18 -28
12 -45 -17 -45 -19 0 -20 -6 -18 -87 2 -60 -1 -88 -9 -91 -15 -5 -16 -39 -2
-44 7 -2 6 -23 -5 -63 -8 -32 -15 -76 -15 -96 0 -28 -5 -39 -19 -44 -15 -5
-20 -20 -25 -93 -9 -113 -9 -122 -1 -152 5 -18 -2 -37 -24 -70 -18 -26 -28
-52 -25 -62 3 -10 2 -23 -3 -30 -4 -7 -9 -47 -9 -90 -1 -42 -7 -109 -14 -148
-10 -58 -10 -106 1 -236 7 -90 16 -164 20 -164 4 0 10 -14 14 -30 4 -17 11
-30 16 -30 5 0 9 -5 9 -11 0 -15 39 -49 56 -49 15 0 20 -16 29 -88 l7 -54 32
6 c34 6 49 0 59 -27 3 -9 16 -17 27 -17 25 0 27 -35 3 -49 -17 -9 -17 -11 2
-25 12 -9 41 -15 71 -16 33 0 56 -5 64 -15 18 -21 3 -35 -38 -35 -21 0 -48 -9
-62 -20 -14 -11 -33 -20 -44 -20 -10 0 -44 -11 -75 -24 -31 -13 -76 -29 -101
-37 -25 -7 -63 -20 -85 -30 -22 -9 -62 -20 -90 -24 -67 -8 -133 -24 -172 -41
-17 -8 -36 -14 -42 -14 -6 0 -11 -4 -11 -10 0 -5 -11 -10 -25 -10 -14 0 -25
-4 -25 -10 0 -5 -8 -10 -19 -10 -18 0 -71 -45 -71 -61 0 -5 -5 -9 -11 -9 -14
0 -39 -25 -39 -39 0 -6 -4 -11 -8 -11 -4 0 -21 -23 -36 -52 -15 -28 -33 -57
-39 -63 -7 -7 -23 -26 -36 -43 -13 -18 -30 -32 -37 -32 -25 0 -64 -23 -69 -42
-4 -12 -16 -18 -36 -18 -16 0 -37 -4 -47 -8 -9 -5 -42 -21 -72 -35 -30 -15
-61 -27 -68 -27 -6 0 -12 -4 -12 -10 0 -5 -15 -10 -34 -10 -32 0 -66 -20 -66
-40 0 -16 -28 -18 -55 -4 -15 8 -35 14 -44 14 -9 0 -29 11 -45 25 -16 14 -39
25 -51 25 -11 0 -25 4 -31 10 -18 18 -149 60 -186 60 -20 0 -40 5 -43 10 -3 6
-19 10 -36 10 -16 0 -29 5 -29 10 0 6 -7 10 -15 10 -9 0 -33 11 -55 25 -22 14
-46 25 -55 25 -8 0 -15 5 -15 10 0 6 -5 10 -11 10 -6 0 -25 11 -43 25 -18 14
-38 25 -44 25 -6 0 -25 16 -43 35 -19 19 -39 35 -47 35 -7 0 -28 11 -45 24
-18 13 -47 29 -64 37 -18 8 -33 17 -33 21 0 5 -9 8 -20 8 -11 0 -20 4 -20 10
0 5 -16 17 -35 26 -19 9 -35 20 -35 25 0 5 -8 9 -18 9 -10 0 -27 8 -38 18 -10
10 -34 27 -51 37 -18 11 -33 23 -33 27 0 4 -7 8 -15 8 -20 0 -145 79 -145 91
0 5 -6 9 -13 9 -7 0 -19 9 -27 20 -8 11 -22 20 -32 20 -10 0 -18 5 -18 10 0 6
-6 10 -14 10 -8 0 -21 6 -28 13 -29 27 -124 87 -139 87 -8 0 -24 8 -35 18 -10
10 -34 27 -51 37 -18 11 -33 23 -33 27 0 4 -7 8 -15 8 -8 0 -15 3 -15 8 0 4
-16 16 -35 26 -19 11 -35 23 -35 28 0 4 -9 8 -19 8 -10 0 -46 20 -79 45 -33
25 -67 45 -76 45 -9 0 -19 7 -22 15 -4 8 -10 15 -15 15 -5 0 -22 13 -37 30
-16 16 -33 30 -38 30 -6 0 -17 12 -26 28 -9 15 -30 41 -47 57 -17 17 -31 36
-31 43 0 20 38 14 45 -8 6 -19 34 -27 48 -14 3 3 -2 21 -11 40 -15 32 -15 35
3 47 13 10 16 21 11 41 -6 24 -4 27 16 24 13 -2 29 -9 36 -15 23 -22 53 -13
65 19 10 29 35 21 53 -17 10 -22 23 -35 35 -35 11 0 19 -4 19 -10 0 -5 8 -10
17 -10 25 0 103 -31 103 -41 0 -5 7 -9 15 -9 9 0 45 -10 81 -21 69 -23 159
-22 314 0 36 5 94 13 130 16 36 4 74 11 85 15 59 26 99 40 116 40 11 0 19 5
19 10 0 6 11 10 24 10 14 0 28 5 31 10 3 5 17 10 31 10 28 0 104 31 104 42 0
5 9 8 20 8 11 0 20 5 20 10 0 6 8 10 18 10 9 0 26 7 36 15 11 8 26 15 33 15
19 0 53 32 53 51 0 10 16 21 43 29 23 8 57 22 75 32 18 10 40 18 48 18 9 0 30
8 47 17 62 34 85 63 52 63 -8 0 -24 6 -35 12 -16 11 -26 9 -55 -6 -19 -11 -35
-23 -35 -28 0 -18 -47 -7 -73 18 -19 17 -34 23 -47 19 -20 -6 -29 -45 -10 -45
6 0 10 -6 10 -12 0 -9 -18 -13 -57 -13 -49 0 -59 -3 -67 -21 -5 -12 -41 -35
-85 -56 -104 -49 -138 -58 -209 -58 -39 0 -62 -4 -62 -11 0 -7 -11 -9 -30 -5
-16 3 -43 9 -60 12 -18 4 -46 0 -70 -10 -54 -21 -226 -22 -277 -1 -19 8 -51
15 -69 15 -33 0 -42 3 -91 28 -13 7 -29 12 -36 12 -8 0 -24 9 -37 20 -13 11
-35 23 -49 26 -47 10 -52 13 -69 44 -9 16 -21 30 -25 30 -4 0 -24 16 -44 35
-20 19 -41 35 -48 35 -6 0 -19 16 -28 35 -9 19 -21 35 -27 35 -5 0 -10 5 -10
10 0 6 -12 23 -28 38 -15 15 -41 45 -57 67 -17 22 -36 46 -42 53 -7 7 -13 18
-13 24 0 17 -141 148 -159 148 -15 0 -71 53 -71 67 0 7 -4 13 -9 13 -5 0 -12
8 -15 17 -3 10 -19 32 -36 50 -16 18 -30 38 -30 46 0 8 -21 37 -47 65 -72 75
-93 101 -93 114 0 6 -11 26 -25 44 -14 18 -25 37 -25 43 0 6 -18 22 -39 35
-22 14 -42 34 -46 46 -3 11 -11 20 -16 20 -5 0 -9 7 -9 15 0 8 -4 15 -9 15 -5
0 -15 25 -21 56 -9 42 -17 58 -36 66 -21 10 -36 33 -39 63 -3 26 -18 65 -25
65 -5 0 -11 9 -15 19 -3 10 -14 21 -24 24 -10 2 -21 17 -24 33 -4 16 -9 44
-13 63 -4 18 -15 42 -25 52 -11 11 -20 29 -20 42 -2 28 -5 59 -7 73 -1 7 -10
14 -21 17 -12 3 -21 17 -25 41 -4 21 -15 46 -24 56 -37 41 -41 50 -40 106 0
45 -6 70 -27 108 -20 39 -26 63 -26 113 0 34 -4 65 -10 68 -5 4 -9 18 -9 33
-1 15 -7 38 -15 52 -8 14 -14 52 -15 88 0 48 -5 70 -20 89 -15 20 -20 41 -20
89 0 34 -4 66 -10 69 -5 3 -10 25 -10 49 0 23 -6 48 -12 54 -15 15 -19 240 -6
258 13 18 12 77 -1 102 -7 13 -10 46 -8 78 3 41 0 57 -9 61 -8 3 -14 20 -14
38 0 19 -4 37 -10 40 -5 3 -10 15 -10 26 0 10 -5 19 -11 19 -9 0 -8 82 3 175
1 11 -1 37 -6 58 -6 34 -5 39 13 44 17 4 21 13 21 49 0 24 -4 44 -10 44 -5 0
-10 7 -10 15 0 8 4 15 9 15 12 0 24 134 20 238 -1 40 12 96 25 104 16 11 49
-2 66 -25 8 -11 25 -30 37 -42 13 -12 23 -27 23 -34 0 -14 17 -15 25 -1 3 6
15 10 26 10 10 0 19 4 19 8 0 4 15 16 33 27 17 10 39 26 47 35 8 10 25 20 38
24 12 4 22 11 22 15 0 10 46 31 66 31 8 0 34 9 56 20 23 11 61 20 85 20 24 0
43 4 43 9 0 6 13 17 28 26 27 16 27 19 24 87 l-4 70 28 -2 c50 -4 84 0 84 8 0
4 -12 15 -27 24 -41 24 -256 17 -318 -11 -45 -20 -155 -27 -155 -10 0 12 -37
11 -61 -1 -10 -6 -19 -19 -19 -30 0 -25 -56 -66 -103 -74 -47 -9 -94 16 -101
53 -9 44 2 214 16 251 7 20 23 48 36 64 12 16 22 36 22 46 0 9 32 50 70 89 39
40 70 79 70 87 0 8 5 14 10 14 6 0 10 8 10 17 0 9 7 24 16 34 25 28 35 87 17
105 -14 13 -17 13 -32 -1 -24 -21 -67 -19 -101 5 -16 11 -35 19 -42 18 -17 -4
-23 55 -9 79 6 10 11 12 11 6 0 -22 15 -14 33 16 11 19 17 50 17 89 0 34 5 64
10 67 6 3 10 32 10 64 0 33 7 96 16 142 11 57 14 112 11 171 -5 81 -4 88 19
115 16 19 24 40 24 66 0 29 5 40 18 44 15 4 17 14 15 71 -4 73 4 89 50 109 22
10 27 19 27 48 0 52 15 75 45 69 14 -2 25 0 25 5 0 5 3 16 6 25 4 10 1 16 -9
16 -24 0 -30 31 -10 51 27 27 43 47 43 54 0 14 30 35 49 35 12 0 21 6 21 14 0
8 5 16 12 18 7 3 8 9 3 19 -16 24 -14 38 6 44 10 4 19 10 19 16 0 5 26 26 58
46 63 42 82 63 97 108 12 34 24 35 90 5 69 -31 80 -32 100 -10 10 11 26 20 37
20 22 0 23 7 3 26 -34 34 -7 58 35 32 15 -10 26 -10 53 0 18 7 41 12 50 12 10
0 20 14 27 39 8 30 21 45 64 73 31 20 74 38 100 42 25 4 46 11 46 17 0 18 28
9 33 -11 4 -16 14 -20 45 -20 23 0 43 4 46 9 3 5 16 11 28 14 13 3 40 10 62
16 49 12 63 6 71 -29 6 -28 35 -47 54 -36 5 4 17 28 27 54 31 83 54 97 54 32
0 -22 4 -40 9 -40 5 0 14 -33 20 -74 11 -79 1 -127 -33 -156 -9 -7 -16 -19
-16 -26 0 -14 -28 -52 -69 -91 -23 -22 -66 -29 -152 -23 -17 1 -34 -8 -50 -25
-30 -33 -48 -50 -74 -69 l-20 -15 20 -6 c11 -4 28 -11 37 -16 10 -5 31 -9 48
-9 20 0 34 -7 44 -23 21 -31 94 -51 158 -44 29 4 56 11 62 17 5 5 19 10 31 10
11 0 31 9 45 20 14 11 32 20 40 20 8 0 33 11 55 25 22 13 48 25 58 25 9 0 17
5 17 10 0 6 6 10 14 10 8 0 16 3 18 8 3 8 84 62 93 62 10 0 30 23 37 40 4 11
21 16 54 18 67 3 77 7 98 47 10 19 26 37 35 40 22 7 24 41 5 71 -13 19 -14 29
-4 59 6 19 16 35 21 35 6 0 8 -4 4 -9 -3 -5 -1 -12 5 -16 5 -3 10 -20 10 -36
0 -50 25 -28 28 24 3 44 1 47 -21 47 -20 0 -23 4 -19 30 5 35 22 39 40 10 24
-38 72 -12 72 39 0 15 11 50 25 77 14 27 25 59 25 72 0 31 30 28 57 -6 65 -82
73 -84 73 -21 0 29 -5 39 -20 44 -17 6 -20 15 -20 73 0 73 2 76 80 113 42 21
72 23 88 7z m-4266 -197 c15 -15 19 -27 14 -47 -10 -39 -32 -56 -82 -62 -44
-5 -44 -4 -44 26 0 17 -6 32 -12 34 -20 7 16 37 51 44 17 4 31 10 31 15 0 15
20 10 42 -10z m1177 -120 l-1 -120 -43 -17 c-41 -15 -44 -19 -47 -58 -3 -40
-4 -39 -8 13 -4 48 -3 55 17 64 18 8 21 15 16 38 -4 22 -2 29 11 29 13 0 16
12 16 67 0 48 5 72 17 85 9 10 17 18 19 18 1 0 3 -54 3 -119z m-114 90 c3 -5
1 -12 -5 -16 -5 -3 -10 1 -10 9 0 18 6 21 15 7z m-1147 -129 c2 -7 -3 -12 -12
-12 -9 0 -16 7 -16 16 0 17 22 14 28 -4z m-28 -57 c0 -18 -5 -25 -20 -25 -15
0 -20 7 -20 25 0 18 5 25 20 25 15 0 20 -7 20 -25z m-920 -225 c0 -5 16 -10
35 -10 19 0 35 -4 35 -10 0 -5 -7 -10 -15 -10 -8 0 -15 -4 -15 -10 0 -5 7 -10
15 -10 8 0 15 -4 15 -10 0 -5 -7 -10 -15 -10 -8 0 -15 -7 -15 -15 0 -8 -9 -15
-20 -15 -16 0 -20 7 -20 35 0 19 -4 35 -10 35 -5 0 -10 9 -10 20 0 11 5 20 10
20 6 0 10 -4 10 -10z m2104 -169 c10 -16 -5 -41 -25 -41 -12 0 -19 7 -19 19 0
25 33 41 44 22z m-2084 -11 c0 -5 -4 -10 -10 -10 -5 0 -10 5 -10 10 0 6 5 10
10 10 6 0 10 -4 10 -10z m117 -135 c3 -30 0 -35 -18 -35 -33 0 -50 29 -30 52
25 30 46 23 48 -17z m6547 -6 c-3 -5 -12 -9 -20 -9 -14 0 -20 31 -7 44 9 9 34
-24 27 -35z m-6684 -44 c0 -9 -9 -15 -25 -15 -16 0 -25 6 -25 15 0 9 9 15 25
15 16 0 25 -6 25 -15z m-70 -55 c0 -11 -4 -20 -10 -20 -5 0 -10 9 -10 20 0 11
5 20 10 20 6 0 10 -9 10 -20z m-276 -156 c24 -9 21 -54 -4 -54 -16 0 -20 7
-20 30 0 32 1 33 24 24z m1956 -286 c0 -18 -2 -20 -9 -8 -6 8 -7 18 -5 22 9
14 14 9 14 -14z m5507 -69 c2 -8 -1 -21 -7 -29 -8 -13 -11 -13 -26 2 -14 14
-14 18 -3 32 16 18 33 16 36 -5z m-6547 -29 c0 -5 -2 -10 -4 -10 -3 0 -8 5
-11 10 -3 6 -1 10 4 10 6 0 11 -4 11 -10z m-124 -34 c16 -16 19 -96 4 -96 -5
0 -10 -9 -10 -19 0 -11 -4 -23 -10 -26 -5 -3 -10 -12 -10 -20 0 -8 -5 -26 -12
-42 -14 -34 -15 -39 -17 -58 -2 -26 -21 -17 -21 10 0 14 -4 25 -10 25 -5 0
-10 -22 -10 -49 0 -46 -19 -97 -47 -128 -15 -17 -41 -17 -59 1 -16 17 -19 56
-4 56 6 0 10 11 10 25 0 14 -2 25 -4 25 -2 0 -11 3 -20 6 -12 4 -16 0 -16 -15
0 -15 -6 -21 -24 -21 -31 0 -56 28 -35 41 8 4 22 6 32 3 9 -3 17 -1 17 5 0 5
-8 12 -19 16 -30 9 -39 115 -10 115 5 0 9 -4 9 -10 0 -5 6 -10 13 -10 18 1 57
36 57 53 0 8 6 17 14 20 15 6 11 47 -5 47 -5 0 -9 9 -9 19 0 24 43 35 98 27
20 -4 44 -2 52 4 20 13 29 12 46 -4z m-1351 -32 c24 -21 27 -27 15 -34 -8 -6
-18 -10 -22 -10 -3 0 -11 -13 -16 -29 -9 -25 -14 -28 -53 -27 -32 1 -45 5 -47
18 -2 12 5 17 25 20 25 3 28 7 31 46 4 50 22 55 67 16z m1495 -44 c-6 -11 -17
-20 -25 -20 -8 0 -13 9 -12 20 1 14 8 20 24 20 21 0 22 -3 13 -20z m-450 -35
c0 -9 -9 -15 -25 -15 -16 0 -25 6 -25 15 0 9 9 15 25 15 16 0 25 -6 25 -15z
m-100 -184 c0 -14 -21 -18 -67 -13 -62 6 -53 22 12 22 30 0 55 -4 55 -9z
m-182 -69 c3 -27 0 -32 -17 -32 -17 0 -21 6 -21 36 0 28 3 35 18 32 11 -2 18
-14 20 -36z m-745 -89 c-7 -2 -19 -2 -25 0 -7 3 -2 5 12 5 14 0 19 -2 13 -5z
m465 -35 c-5 -34 -38 -37 -38 -4 0 20 5 26 21 26 15 0 20 -5 17 -22z m-12 -62
c16 -17 18 -32 5 -40 -5 -3 -14 8 -20 24 -11 33 -7 37 15 16z m-66 -205 c0
-12 -29 -41 -40 -41 -16 0 -22 21 -10 35 14 17 50 20 50 6z m1182 -61 c0 -11
1 -26 2 -32 1 -7 -5 -12 -11 -10 -7 1 -13 -2 -13 -8 0 -20 -21 -9 -30 16 -7
19 -7 31 1 40 17 21 49 17 51 -6z m-1232 1 c0 -5 9 -13 20 -16 11 -3 20 -11
20 -16 0 -16 -32 -10 -46 9 -16 21 -17 32 -4 32 6 0 10 -4 10 -9z m-470 -31
c0 -5 -4 -10 -10 -10 -5 0 -10 5 -10 10 0 6 5 10 10 10 6 0 10 -4 10 -10z
m278 -37 c-2 -22 -8 -27 -23 -25 -27 5 -28 7 -15 31 16 32 42 27 38 -6z m559
-163 c3 -11 11 -20 19 -20 7 0 25 -5 39 -12 32 -14 34 -41 3 -36 -13 2 -22 9
-20 16 1 9 -19 12 -74 12 -53 0 -80 4 -90 15 -25 25 2 44 64 45 46 0 55 -3 59
-20z m163 10 c0 -5 -11 -10 -25 -10 -14 0 -25 5 -25 10 0 6 11 10 25 10 14 0
25 -4 25 -10z m398 -104 c2 -3 1 -17 -2 -33 -5 -19 -10 -23 -16 -14 -6 11 -10
10 -17 -4 -6 -9 -18 -15 -29 -13 -14 2 -19 12 -20 40 l-1 36 40 -4 c22 -2 42
-6 45 -8z m8792 -42 c0 -17 -5 -24 -20 -24 -14 0 -20 7 -20 24 0 23 17 38 33
29 4 -2 7 -15 7 -29z m-1320 -16 c0 -5 -13 -8 -30 -8 -33 0 -36 4 -18 24 10
10 17 11 30 2 10 -6 18 -14 18 -18z m-7090 -23 c0 -8 -4 -15 -10 -15 -5 0 -10
7 -10 15 0 8 5 15 10 15 6 0 10 -7 10 -15z m7892 -187 c-9 -9 -15 -9 -24 0 -9
9 -7 12 12 12 19 0 21 -3 12 -12z m-9492 -38 c0 -5 -18 -10 -40 -10 -22 0 -40
5 -40 10 0 6 18 10 40 10 22 0 40 -4 40 -10z m8670 -26 c0 -17 -5 -17 -31 -3
-11 5 -17 14 -14 19 8 13 45 0 45 -16z m-7650 -89 c0 -8 -4 -15 -10 -15 -5 0
-10 7 -10 15 0 8 5 15 10 15 6 0 10 -7 10 -15z m253 -7 c23 -11 27 -19 27 -56
0 -28 -5 -45 -15 -48 -19 -8 -38 -75 -25 -88 15 -15 12 -36 -5 -36 -8 0 -15 8
-16 18 0 10 -3 12 -6 5 -2 -7 -11 -13 -19 -13 -8 0 -14 -6 -15 -12 -1 -7 -4
-2 -8 12 -4 16 -2 30 6 38 7 7 16 25 19 39 4 15 9 21 14 13 4 -6 10 14 14 45
3 31 4 61 1 66 -4 5 0 9 7 10 7 1 2 5 -12 9 -14 4 -18 8 -9 9 8 1 27 -5 42
-11z m155 -221 c-5 -31 -42 -77 -56 -68 -6 4 -9 23 -5 49 5 38 8 42 35 42 24
0 28 -4 26 -23z m-378 -107 c0 -48 -14 -67 -26 -35 -8 20 5 85 16 85 6 0 10
-22 10 -50z m747 -36 c-3 -3 -12 -4 -19 -1 -8 3 -5 6 6 6 11 1 17 -2 13 -5z
m-143 -203 c3 -4 -5 -18 -18 -30 -36 -34 -117 -15 -103 23 5 12 21 16 61 16
30 0 57 -4 60 -9z m-151 -104 c30 -16 46 -39 40 -54 -3 -8 6 -15 25 -19 27 -6
59 -45 54 -66 -1 -5 18 -8 42 -8 35 0 46 -4 51 -19 3 -11 15 -23 26 -26 31
-10 22 -25 -16 -25 -23 0 -35 5 -35 13 0 30 -102 51 -127 26 -6 -6 -24 -13
-41 -15 -29 -5 -31 -3 -37 33 -4 21 -7 45 -8 53 -3 21 -17 30 -50 30 -32 0
-51 36 -41 76 6 24 10 25 51 19 24 -3 54 -11 66 -18z m1178 -70 c-8 -8 -11 -3
-11 19 1 25 2 27 11 11 8 -14 8 -22 0 -30z m-1756 -55 c11 -4 29 -12 39 -18
19 -11 18 -13 -11 -43 -23 -23 -41 -31 -66 -31 -39 0 -47 12 -47 66 0 32 2 34
33 33 17 -1 41 -4 52 -7z m1956 -72 c5 0 9 -10 9 -23 0 -14 18 -37 49 -65 26
-23 59 -63 72 -88 13 -25 33 -56 46 -67 15 -15 23 -34 23 -59 0 -20 5 -40 10
-43 6 -3 10 -18 10 -32 0 -14 11 -38 25 -55 22 -26 25 -39 25 -109 l0 -79 29
0 c25 0 29 4 35 38 9 58 7 150 -4 157 -5 3 -10 21 -10 40 0 19 -4 44 -8 57
-12 33 0 73 22 73 20 0 40 -49 51 -127 3 -27 10 -48 16 -48 5 0 9 -76 9 -185
0 -117 -4 -185 -10 -185 -5 0 -10 12 -10 27 0 15 -10 51 -22 80 -17 42 -26 52
-42 49 -11 -1 -23 -9 -27 -17 -31 -64 -32 -68 -20 -113 6 -25 11 -54 11 -66 0
-11 9 -30 20 -42 11 -12 23 -38 26 -57 4 -20 10 -40 14 -46 4 -5 13 -32 20
-60 8 -27 16 -52 19 -55 23 -19 59 -92 65 -130 7 -49 23 -105 37 -132 5 -10 9
-31 9 -48 0 -16 5 -30 10 -30 6 0 10 -7 10 -15 0 -8 4 -15 9 -15 12 0 27 -42
52 -150 13 -56 29 -101 39 -110 18 -16 25 -37 40 -131 12 -71 24 -103 50 -129
11 -11 20 -28 20 -38 0 -9 21 -40 46 -67 42 -46 45 -53 41 -92 -3 -28 -1 -43
7 -43 15 0 66 -65 66 -84 0 -9 3 -16 8 -16 12 0 42 -60 42 -85 0 -13 5 -27 11
-30 6 -4 8 -13 5 -20 -2 -7 8 -22 23 -33 26 -19 81 -115 81 -140 0 -7 5 -12
10 -12 6 0 10 -4 10 -10 0 -5 24 -33 54 -62 30 -29 56 -64 58 -77 1 -13 12
-29 23 -35 29 -17 45 -33 45 -48 0 -7 20 -38 45 -68 25 -30 45 -58 45 -62 0
-7 29 -36 65 -66 25 -21 17 -49 -20 -78 -19 -14 -41 -38 -48 -52 -6 -14 -28
-34 -47 -43 -19 -9 -60 -28 -90 -42 -83 -40 -137 -48 -327 -47 -143 1 -178 -1
-198 -14 -28 -18 -155 -22 -172 -5 -5 5 -52 13 -104 16 -67 3 -101 10 -119 23
-14 9 -41 20 -60 23 -158 24 -240 44 -240 59 0 4 -27 8 -59 8 -51 0 -63 4 -90
29 -17 16 -31 34 -31 39 0 15 -34 72 -42 72 -13 0 -9 48 5 54 10 5 10 7 0 12
-19 8 -18 284 0 284 7 0 17 8 23 18 17 26 -4 70 -60 125 l-46 46 0 91 c0 53 4
90 10 90 6 0 10 38 11 93 1 154 36 375 64 404 15 14 13 18 -17 44 -18 15 -39
28 -45 29 -8 0 -13 14 -13 35 0 30 3 35 23 35 43 0 66 11 60 28 -4 10 -11 20
-17 24 -16 11 -15 220 2 226 6 2 12 10 12 19 0 17 -38 52 -57 53 -18 0 -16 20
1 20 11 0 13 8 9 33 -3 23 0 37 11 46 9 7 16 20 16 27 0 8 5 14 10 14 6 0 10
9 10 20 0 11 -4 20 -10 20 -5 0 -10 7 -10 15 0 8 5 15 10 15 6 0 10 39 10 96
l0 96 25 -6 c23 -6 25 -4 25 29 0 33 -2 35 -35 35 -19 0 -35 -4 -35 -10 0 -5
-4 -10 -10 -10 -5 0 -10 11 -10 25 0 14 -4 25 -10 25 -5 0 -10 20 -10 45 0 33
-4 45 -15 45 -17 0 -19 6 -5 23 55 67 60 77 60 114 0 21 4 43 10 49 5 5 10 47
12 94 3 79 4 85 26 88 21 3 32 22 12 22 -6 0 -10 40 -10 101 0 91 2 101 19
106 19 5 40 63 46 127 2 16 8 32 15 36 6 4 10 15 8 25 -2 13 5 21 22 25 14 4
24 12 23 18 -2 6 4 9 12 6 11 -5 15 2 16 22 1 24 3 22 12 -13 5 -24 14 -43 18
-43z m-1261 -1080 c0 -13 -7 -20 -20 -20 -13 0 -20 7 -20 20 0 13 7 20 20 20
13 0 20 -7 20 -20z m-230 -35 c0 -8 -4 -15 -10 -15 -5 0 -10 7 -10 15 0 8 5
15 10 15 6 0 10 -7 10 -15z m370 -255 c0 -6 -6 -19 -12 -30 -10 -15 -10 -22 0
-32 9 -9 15 -10 20 -2 5 9 11 8 20 -2 10 -11 10 -14 0 -14 -9 0 -9 -3 2 -10
26 -16 0 -25 -83 -26 -87 0 -127 -9 -127 -25 0 -15 -60 0 -79 18 -12 13 -12
16 0 24 8 5 26 9 40 9 28 0 39 16 39 56 0 21 5 24 35 24 19 0 35 5 35 10 0 6
25 10 55 10 30 0 55 -5 55 -10z m-50 -250 c13 -9 13 -11 0 -20 -15 -10 -50
-14 -50 -6 0 2 -3 11 -6 20 -5 12 0 16 17 16 13 0 31 -5 39 -10z m-316 -91
c-3 -5 -2 -9 3 -9 4 0 14 -4 22 -9 12 -8 12 -12 -2 -25 -21 -21 -27 -20 -27 3
0 11 -5 21 -12 23 -8 3 -11 21 -10 48 4 62 15 72 24 21 4 -24 5 -48 2 -52z
m156 -49 c0 -5 9 -10 21 -10 18 0 20 -6 18 -42 -3 -70 0 -88 15 -88 35 0 26
-72 -10 -89 -14 -6 -31 -11 -39 -11 -23 0 -38 -36 -25 -60 13 -25 5 -40 -21
-40 -10 0 -19 -3 -19 -8 0 -7 -37 -25 -77 -37 -17 -5 -23 -2 -23 9 0 9 -9 16
-20 16 -17 0 -20 7 -20 40 0 35 -7 47 -45 86 -25 24 -45 49 -45 54 0 6 -7 10
-15 10 -8 0 -15 5 -15 10 0 6 9 10 20 10 13 0 24 10 30 25 8 21 16 25 52 25
63 0 84 8 99 38 22 42 35 52 68 52 17 0 31 5 31 10 0 6 5 10 10 10 6 0 10 -4
10 -10z m160 -192 c0 -18 -7 -42 -15 -52 -19 -25 -19 -82 -1 -89 14 -6 16 -30
3 -43 -4 -4 -7 -25 -7 -46 0 -24 -4 -37 -10 -33 -5 3 -10 1 -10 -4 0 -6 -16
-11 -35 -11 -19 0 -35 3 -35 6 0 10 28 34 39 34 13 0 15 72 2 86 -14 14 -18
104 -5 104 14 0 24 23 24 56 0 19 5 24 25 24 22 0 25 -4 25 -32z m6450 -121
c0 -22 -16 -47 -31 -47 -10 0 -19 40 -12 56 9 24 43 17 43 -9z m-6532 -759 c2
-9 -4 -22 -13 -30 -9 -7 -25 -22 -35 -32 -20 -20 -20 -19 -20 13 0 46 17 73
43 69 12 -2 23 -10 25 -20z m-180 -95 c7 -7 24 -16 38 -19 23 -6 34 -24 14
-24 -5 0 -10 -7 -10 -15 0 -20 -46 -20 -54 1 -3 9 -4 20 0 25 3 5 -6 9 -20 9
-21 0 -26 5 -26 23 0 42 13 42 58 0z m262 -173 c0 -5 -13 -10 -30 -10 -16 0
-30 5 -30 10 0 6 14 10 30 10 17 0 30 -4 30 -10z m-572 -51 c2 -5 17 -9 32 -9
33 0 80 -19 80 -32 0 -4 -3 -8 -7 -9 -88 -7 -153 -7 -158 1 -4 6 -4 24 0 41 6
25 10 29 28 23 12 -4 24 -11 25 -15z m1422 -39 c0 -5 -11 -10 -25 -10 -14 0
-25 5 -25 10 0 6 11 10 25 10 14 0 25 -4 25 -10z m3606 -37 c-3 -3 -13 -2 -23
2 -17 7 -17 8 2 15 19 7 34 -5 21 -17z m-3513 10 c-7 -2 -19 -2 -25 0 -7 3 -2
5 12 5 14 0 19 -2 13 -5z m-1318 -32 c36 -4 51 -11 53 -23 4 -19 -48 -78 -68
-78 -7 0 -21 -9 -30 -20 -13 -15 -34 -22 -77 -26 -167 -13 -193 -16 -193 -25
0 -5 -9 -9 -20 -9 -13 0 -20 7 -20 20 0 13 7 20 20 20 15 0 20 7 20 25 0 14 5
25 11 25 7 0 20 9 30 21 16 19 20 20 34 6 8 -9 15 -22 15 -30 0 -29 12 -47 32
-47 15 0 18 5 13 20 -11 36 5 79 35 95 21 11 27 20 23 31 -5 15 -1 16 33 9 21
-4 61 -10 89 -14z m3375 -131 c0 -5 -9 -10 -20 -10 -11 0 -20 5 -20 10 0 6 9
10 20 10 11 0 20 -4 20 -10z m-3943 -123 c-6 -20 -27 -19 -27 2 0 14 5 19 15
14 9 -3 14 -10 12 -16z m7316 -84 c-7 -2 -19 -2 -25 0 -7 3 -2 5 12 5 14 0 19
-2 13 -5z m-1033 -1833 c0 -24 0 -24 -34 -7 -29 16 -24 27 11 27 16 0 23 -6
23 -20z"/>
<path d="M8225 9870 c3 -5 8 -10 11 -10 2 0 4 5 4 10 0 6 -5 10 -11 10 -5 0
-7 -4 -4 -10z"/>
<path d="M6887 8524 c-3 -3 -40 -10 -82 -15 -43 -6 -94 -18 -114 -28 -47 -24
-131 -101 -131 -119 0 -8 -8 -26 -19 -40 -50 -72 -31 -105 57 -96 31 3 73 10
92 15 19 5 70 9 112 9 84 0 124 13 134 42 3 11 3 51 -1 89 -7 68 -7 69 19 79
34 13 33 38 -1 45 -16 4 -35 10 -44 15 -9 5 -19 6 -22 4z"/>
<path d="M7000 8479 c0 -11 6 -27 14 -35 19 -18 65 -18 72 1 8 19 38 19 53 1
7 -8 20 -12 30 -9 23 6 61 -29 61 -56 0 -28 51 -77 88 -86 18 -3 32 -11 32
-16 0 -5 7 -9 15 -9 8 0 24 -6 35 -12 15 -10 22 -10 32 0 14 14 67 15 122 2
43 -10 66 3 66 39 0 13 -11 24 -35 32 -19 7 -35 16 -35 19 0 8 -52 30 -115 50
-22 7 -42 16 -45 19 -10 13 -85 31 -88 21 -6 -16 -39 -12 -46 5 -3 9 -18 15
-35 15 -16 0 -31 6 -35 15 -7 18 -29 19 -57 3 -17 -11 -22 -10 -30 5 -7 12
-23 17 -54 17 -39 0 -45 -3 -45 -21z"/>
<path d="M5370 8268 c0 -30 1 -31 15 -12 19 25 19 44 0 44 -10 0 -15 -10 -15
-32z"/>
<path d="M5406 8203 c-3 -21 -6 -55 -6 -75 0 -21 -4 -38 -10 -38 -5 0 -10 7
-10 15 0 8 -8 15 -18 15 -10 0 -19 -7 -19 -15 0 -8 4 -15 9 -15 4 0 8 -7 8
-15 0 -8 6 -15 14 -15 8 0 17 -6 19 -12 4 -10 6 -10 6 0 1 6 7 12 15 12 18 0
31 115 17 153 -14 36 -17 34 -25 -10z"/>
<path d="M5076 8135 c-17 -13 -17 -15 -3 -29 9 -9 25 -16 37 -16 17 0 21 5 18
27 -3 32 -25 39 -52 18z"/>
<path d="M5308 8043 c-9 -2 -21 -18 -27 -35 -14 -40 -15 -38 18 -38 29 0 41
14 41 50 0 22 -9 28 -32 23z"/>
<path d="M5185 7890 c-3 -5 1 -10 10 -10 9 0 13 5 10 10 -3 6 -8 10 -10 10 -2
0 -7 -4 -10 -10z"/>
<path d="M9128 7792 c-16 -10 -28 -25 -28 -34 0 -11 -8 -18 -19 -18 -26 0 -35
-16 -16 -27 15 -9 50 -197 39 -214 -3 -5 -14 -9 -25 -9 -13 0 -19 -7 -19 -23
0 -13 3 -26 6 -29 11 -12 46 6 55 28 4 13 15 24 23 24 23 0 35 32 29 78 -3 23
-1 47 4 54 6 7 14 31 18 53 4 22 12 43 18 47 7 4 7 11 -2 22 -9 11 -10 16 -2
16 21 0 11 38 -11 44 -31 8 -39 7 -70 -12z"/>
<path d="M5270 7753 c0 -7 -5 -13 -11 -13 -18 0 -38 -32 -39 -62 0 -39 11 -35
42 16 17 29 23 48 17 57 -6 10 -9 10 -9 2z"/>
<path d="M4130 7730 c0 -5 7 -10 15 -10 8 0 15 5 15 10 0 6 -7 10 -15 10 -8 0
-15 -4 -15 -10z"/>
<path d="M9240 7730 c0 -5 7 -10 16 -10 8 0 12 5 9 10 -3 6 -10 10 -16 10 -5
0 -9 -4 -9 -10z"/>
<path d="M4088 7703 c7 -3 16 -2 19 1 4 3 -2 6 -13 5 -11 0 -14 -3 -6 -6z"/>
<path d="M4970 7645 c0 -8 2 -15 4 -15 2 0 6 7 10 15 3 8 1 15 -4 15 -6 0 -10
-7 -10 -15z"/>
<path d="M5933 7343 c-17 -6 -16 -31 1 -49 10 -9 37 -14 85 -14 67 0 71 1 71
23 0 13 -5 28 -12 35 -12 12 -120 16 -145 5z"/>
<path d="M5317 7205 c28 -28 54 -45 68 -45 13 0 27 -4 30 -10 11 -17 35 -11
35 9 0 40 -85 90 -152 91 -26 0 -26 -1 19 -45z"/>
<path d="M8710 6665 c0 -8 5 -15 10 -15 6 0 10 7 10 15 0 8 -4 15 -10 15 -5 0
-10 -7 -10 -15z"/>
<path d="M8793 6623 c-7 -15 -13 -35 -13 -44 0 -18 -34 -35 -57 -31 -13 3 -17
-10 -14 -36 1 -7 -14 -31 -33 -53 -25 -27 -36 -49 -36 -70 0 -16 -7 -43 -15
-59 -8 -16 -14 -37 -13 -47 3 -25 -12 -114 -23 -138 -5 -11 -8 -33 -7 -50 2
-49 -12 -94 -35 -110 -19 -13 -20 -17 -7 -56 13 -37 12 -43 -3 -54 -9 -7 -17
-17 -17 -24 0 -6 -6 -14 -13 -17 -8 -3 -14 -10 -15 -17 -1 -13 -27 -164 -38
-214 -3 -18 -12 -33 -19 -33 -17 0 -45 -33 -45 -53 0 -9 -6 -20 -13 -24 -7 -4
-18 -35 -25 -67 -6 -33 -16 -62 -21 -65 -5 -3 -17 -25 -26 -49 -10 -23 -21
-42 -26 -42 -5 0 -9 -7 -9 -15 0 -9 -11 -28 -25 -43 -14 -15 -34 -45 -44 -67
-10 -22 -31 -47 -45 -54 -14 -8 -26 -18 -26 -23 0 -4 -6 -8 -14 -8 -8 0 -20
-16 -27 -35 -7 -19 -17 -35 -21 -35 -4 0 -8 -8 -8 -19 0 -24 -23 -43 -43 -36
-17 7 -67 -38 -67 -60 0 -13 -18 -31 -92 -95 -21 -18 -38 -38 -38 -46 0 -14
-59 -76 -99 -104 -12 -8 -24 -24 -27 -35 -7 -23 -43 -65 -57 -65 -24 0 -77
-34 -77 -50 0 -19 -37 -71 -48 -67 -4 1 -29 -23 -57 -53 -27 -30 -53 -56 -57
-58 -5 -2 -8 -12 -8 -22 0 -12 -15 -24 -45 -37 -27 -10 -45 -24 -45 -34 0 -9
-12 -27 -27 -41 -16 -13 -41 -41 -57 -61 -15 -21 -36 -37 -45 -37 -20 0 -51
-34 -51 -55 0 -8 -6 -15 -14 -15 -8 0 -24 -8 -37 -19 -22 -18 -22 -19 -5 -36
10 -10 31 -18 47 -17 30 1 99 44 99 63 0 5 6 9 13 9 6 0 26 15 43 33 17 17 43
41 59 52 16 11 33 25 39 30 6 6 23 18 38 27 14 10 29 26 33 37 3 10 18 21 33
25 15 3 58 35 95 71 38 36 71 65 73 65 8 0 34 28 34 37 0 4 21 26 46 48 97 87
228 224 286 300 12 17 42 50 66 74 23 24 49 56 57 71 8 15 29 40 48 57 18 16
49 52 67 79 19 27 36 51 40 54 12 10 40 60 40 71 0 6 8 19 18 28 10 9 27 37
37 64 10 26 22 47 26 47 5 0 9 9 9 20 0 11 5 20 10 20 6 0 10 8 10 18 0 9 7
26 15 36 8 11 15 35 15 53 0 18 3 33 8 33 14 0 35 44 48 102 13 55 39 121 72
183 8 17 19 38 24 48 4 9 13 26 18 37 6 11 10 27 10 35 0 8 4 15 9 15 5 0 12
30 16 67 11 101 19 113 76 113 26 0 51 -4 54 -10 3 -5 22 -10 41 -10 19 0 34
5 34 10 0 6 -8 10 -18 10 -30 0 -80 29 -87 50 -4 11 -10 20 -14 20 -4 0 -17 9
-29 20 -26 24 -29 75 -7 104 9 12 15 42 15 74 0 34 5 59 15 68 8 9 15 27 15
40 0 14 9 44 20 66 11 23 20 48 20 55 0 7 4 13 8 13 4 0 13 14 19 31 21 55
-10 84 -34 32z"/>
<path d="M5765 6491 c-24 -14 -74 -19 -253 -28 -164 -9 -230 -16 -254 -27 -17
-9 -41 -16 -54 -16 -14 0 -25 -8 -29 -20 -3 -11 -10 -20 -15 -20 -5 0 -20 -11
-34 -25 -16 -16 -36 -25 -55 -25 -24 0 -32 -5 -37 -25 -3 -13 -15 -27 -25 -30
-28 -9 -27 -111 1 -157 21 -35 26 -83 10 -93 -6 -3 -10 -48 -10 -100 0 -78 4
-104 24 -147 13 -29 28 -62 32 -73 5 -11 11 -114 15 -230 5 -151 12 -239 28
-315 11 -58 21 -117 21 -132 0 -71 92 -198 142 -198 10 0 18 -4 18 -9 0 -5 10
-13 22 -17 12 -3 29 -13 37 -21 11 -12 29 -13 85 -8 39 4 75 11 81 16 5 5 34
9 65 9 30 1 66 7 80 15 14 8 43 14 65 15 23 0 45 4 50 9 12 11 99 30 175 38
54 6 93 28 73 41 -5 4 -13 21 -16 38 -5 25 -1 38 18 60 14 16 25 32 25 37 0 4
9 7 20 7 11 0 20 5 20 10 0 6 30 25 68 44 37 18 81 40 97 49 17 8 41 20 55 25
14 6 40 16 58 24 17 7 32 17 32 23 1 10 43 49 106 100 18 14 44 25 58 25 28 0
47 27 27 39 -21 13 6 60 42 74 10 4 17 17 17 32 0 17 8 29 24 37 14 6 30 23
36 39 8 18 24 32 46 39 23 8 34 18 34 31 0 11 10 23 23 28 13 5 32 22 42 38
10 15 24 33 31 38 27 21 94 166 99 212 3 27 8 72 11 100 6 49 3 56 -34 109
-38 53 -78 84 -108 84 -8 0 -14 4 -14 9 0 5 -11 12 -25 15 -14 4 -25 11 -25
16 0 6 -8 10 -18 10 -10 0 -23 5 -29 11 -15 15 -59 7 -55 -10 6 -26 -10 -71
-24 -71 -8 0 -14 -8 -14 -17 -1 -28 -25 -53 -51 -53 -24 1 -59 21 -59 34 0 4
-6 13 -12 21 -11 11 -39 47 -58 75 -3 4 -17 10 -31 13 -34 9 -75 -22 -84 -63
-7 -30 -7 -30 -77 -30 -61 0 -76 4 -105 26 -18 14 -33 31 -33 39 0 8 -7 11
-20 8 -12 -3 -20 -14 -20 -27 0 -12 -12 -34 -27 -49 -31 -28 -42 -30 -423 -43
-85 -3 -159 -9 -165 -13 -5 -5 -28 -14 -50 -21 -36 -11 -95 -63 -95 -82 0 -5
-16 -8 -35 -8 -24 0 -35 5 -35 15 0 8 -6 15 -13 15 -35 0 -51 124 -20 155 12
13 28 16 58 13 43 -5 65 8 65 37 0 27 23 42 83 55 31 6 57 14 57 18 0 4 14 15
31 25 22 12 53 17 105 17 42 0 83 5 94 12 16 10 24 10 39 1 16 -10 27 -8 60 8
51 24 54 52 9 70 -18 7 -35 14 -38 15 -3 1 -18 -5 -35 -15z m-599 -581 c8 0
14 -9 14 -20 0 -15 7 -20 28 -20 15 0 33 5 40 12 9 9 12 9 12 0 0 -7 -4 -12
-10 -12 -5 0 -10 -11 -10 -24 0 -14 -4 -28 -10 -31 -5 -3 -10 -17 -10 -31 0
-13 -2 -24 -4 -24 -2 0 -11 -3 -20 -6 -10 -4 -16 -1 -16 7 0 8 -4 21 -10 29
-7 12 -12 11 -30 -5 -31 -28 -54 -10 -61 51 -8 66 4 88 43 80 17 -3 37 -6 44
-6z m1681 -22 c-3 -7 -5 -2 -5 12 0 14 2 19 5 13 2 -7 2 -19 0 -25z m-131
-110 c-3 -13 -9 -40 -12 -60 -4 -21 -16 -48 -29 -60 -12 -13 -28 -38 -36 -55
-15 -35 -48 -45 -50 -15 -4 83 4 137 22 153 10 9 19 21 19 26 0 19 25 33 58
33 31 0 34 -2 28 -22z m-939 -25 c10 -13 16 -15 19 -5 9 20 44 14 53 -10 8
-20 10 -21 16 -5 10 25 22 21 33 -12 12 -34 8 -41 -25 -41 -16 0 -23 -5 -20
-12 2 -7 10 -12 16 -10 6 1 11 -2 11 -8 0 -5 6 -9 13 -7 9 1 12 -17 12 -68 l0
-70 35 0 c26 0 36 5 38 18 8 38 104 138 129 134 36 -8 52 -19 62 -47 10 -29 5
-70 -9 -70 -4 0 -12 -12 -19 -26 -9 -20 -9 -30 0 -40 10 -12 9 -38 -4 -93 -4
-17 -36 -30 -55 -23 -7 2 -18 -1 -26 -7 -8 -7 -31 -13 -52 -15 -21 -2 -40 -9
-42 -16 -3 -9 1 -11 12 -7 22 9 102 -11 141 -35 17 -10 39 -18 50 -18 18 -1
17 -2 -5 -14 -47 -26 -87 -29 -120 -10 -16 10 -30 21 -30 25 0 4 -10 9 -23 13
-28 7 -67 39 -67 55 0 8 -16 11 -47 9 -51 -3 -62 -21 -17 -26 25 -3 26 -6 20
-42 -6 -39 7 -89 26 -101 6 -4 7 -12 4 -18 -11 -17 -23 -5 -31 31 -4 18 -9 27
-12 21 -7 -19 -30 -16 -42 4 -5 10 -13 14 -17 10 -5 -5 -2 -12 5 -17 16 -9 42
-80 35 -92 -3 -4 -14 -8 -24 -8 -10 0 -22 -4 -25 -10 -3 -5 -31 -10 -61 -10
-48 0 -54 2 -54 20 0 11 -8 24 -17 27 -27 10 -41 27 -59 72 -9 23 -19 41 -23
41 -8 0 -31 60 -31 82 0 9 6 19 13 22 10 5 10 7 0 12 -16 7 -17 71 -2 76 9 3
8 10 -1 28 -11 20 -16 73 -11 115 2 22 51 67 68 63 14 -2 19 -14 21 -51 2 -26
6 -47 10 -47 4 0 20 14 35 31 15 17 27 27 27 23 0 -5 5 -2 10 6 5 8 10 41 10
73 0 49 14 97 29 97 2 0 10 -8 18 -17z m723 -28 c6 -8 9 -18 6 -23 -3 -5 -9
-52 -12 -103 l-7 -94 -48 -47 c-52 -52 -60 -55 -82 -33 -12 11 -22 12 -53 4
-33 -10 -40 -9 -50 8 -7 10 -21 26 -31 36 -13 14 -15 20 -5 26 7 4 15 32 18
62 3 30 10 74 16 98 l11 44 64 -6 c69 -7 93 -2 93 18 0 8 12 16 28 18 15 2 30
5 33 6 4 0 12 -6 19 -14z m-1033 -241 c-3 -3 -12 -4 -19 -1 -8 3 -5 6 6 6 11
1 17 -2 13 -5z m-37 -75 c0 -23 -7 -47 -15 -55 -27 -28 -18 -44 25 -44 22 0
40 -4 40 -10 0 -5 8 -10 17 -10 9 0 25 -7 35 -17 19 -17 25 -53 9 -53 -6 0
-13 -20 -17 -45 -6 -43 -8 -45 -38 -45 -50 0 -80 38 -72 89 7 46 0 71 -20 71
-8 0 -26 7 -39 16 -24 16 -24 16 -8 57 18 47 50 87 70 87 9 0 13 -14 13 -41z
m880 -39 c0 -21 -33 -60 -51 -60 -10 0 -21 -4 -24 -10 -3 -5 -16 -10 -28 -10
-21 1 -21 1 5 23 81 68 98 77 98 57z m-370 -180 c0 -5 -7 -10 -15 -10 -8 0
-15 5 -15 10 0 6 7 10 15 10 8 0 15 -4 15 -10z"/>
<path d="M6286 6474 c-9 -23 -8 -24 19 -24 23 0 24 2 15 20 -13 24 -26 26 -34
4z"/>
<path d="M6402 6408 c8 -23 35 -33 52 -19 25 21 19 31 -20 31 -23 0 -34 -4
-32 -12z"/>
<path d="M4625 4960 c-3 -5 -1 -10 4 -10 6 0 11 5 11 10 0 6 -2 10 -4 10 -3 0
-8 -4 -11 -10z"/>
<path d="M3433 6883 c-19 -7 -16 -81 3 -100 13 -14 17 -14 25 -2 5 8 7 20 4
27 -3 8 -5 29 -5 48 0 34 -3 37 -27 27z"/>
<path d="M3470 6782 c0 -5 7 -9 15 -9 8 0 15 4 15 9 0 4 -7 8 -15 8 -8 0 -15
-4 -15 -8z"/>
<path d="M3332 6545 c0 -50 1 -56 9 -33 7 17 7 38 0 60 -8 30 -9 28 -9 -27z"/>
<path d="M3370 6376 c0 -14 5 -28 10 -31 6 -4 10 7 10 24 0 17 -4 31 -10 31
-5 0 -10 -11 -10 -24z"/>
<path d="M3374 4164 c-13 -50 27 -111 43 -67 3 10 11 21 16 24 15 10 -15 69
-35 69 -11 0 -20 -11 -24 -26z"/>
<path d="M3400 4044 c0 -20 24 -44 44 -44 19 0 20 11 4 32 -19 23 -48 30 -48
12z"/>
<path d="M4163 3843 c9 -2 23 -2 30 0 6 3 -1 5 -18 5 -16 0 -22 -2 -12 -5z"/>
<path d="M2085 5140 c3 -5 13 -10 21 -10 8 0 14 5 14 10 0 6 -9 10 -21 10 -11
0 -17 -4 -14 -10z"/>
<path d="M1870 3782 c0 -5 9 -17 20 -27 20 -18 21 -18 35 1 22 29 18 34 -20
34 -19 0 -35 -4 -35 -8z"/>
<path d="M4573 13193 c-7 -3 -13 -16 -13 -29 0 -19 5 -24 25 -24 14 0 25 4 25
9 0 5 3 16 6 24 5 15 -21 27 -43 20z"/>
<path d="M4133 13039 c4 -13 7 -30 7 -37 0 -8 11 -11 30 -10 47 4 34 46 -19
63 -21 7 -23 5 -18 -16z"/>
<path d="M4040 12780 c0 -5 5 -10 10 -10 6 0 10 5 10 10 0 6 -4 10 -10 10 -5
0 -10 -4 -10 -10z"/>
<path d="M3700 12720 c0 -5 20 -10 45 -10 31 0 47 -5 51 -15 7 -16 34 -21 34
-6 0 12 -74 41 -105 41 -14 0 -25 -4 -25 -10z"/>
<path d="M3880 12719 c0 -5 6 -9 13 -9 7 0 23 -11 35 -25 27 -31 72 -34 72 -6
0 11 5 23 10 26 26 16 4 24 -60 24 -38 -1 -70 -5 -70 -10z"/>
<path d="M4052 12619 c-13 -5 -30 -15 -38 -23 -16 -17 -19 -56 -4 -56 6 0 9
-3 9 -7 -1 -5 -1 -23 0 -40 1 -25 6 -33 20 -33 15 0 19 11 25 62 6 61 15 84
23 61 7 -20 70 -16 77 4 8 19 -9 33 -41 33 -12 0 -27 2 -35 4 -7 3 -23 1 -36
-5z"/>
<path d="M4300 12605 c0 -8 5 -15 10 -15 6 0 10 7 10 15 0 8 -4 15 -10 15 -5
0 -10 -7 -10 -15z"/>
<path d="M6100 12580 c0 -5 5 -10 10 -10 6 0 10 5 10 10 0 6 -4 10 -10 10 -5
0 -10 -4 -10 -10z"/>
<path d="M3880 12534 c0 -9 5 -14 12 -12 18 6 21 28 4 28 -9 0 -16 -7 -16 -16z"/>
<path d="M6630 12495 c0 -8 5 -15 10 -15 6 0 10 7 10 15 0 8 -4 15 -10 15 -5
0 -10 -7 -10 -15z"/>
<path d="M2402 12133 c2 -12 -4 -19 -19 -21 -13 -2 -23 -9 -23 -17 0 -7 -4
-15 -10 -17 -6 -2 -7 -24 -3 -55 l6 -53 38 0 39 0 0 90 c0 74 -3 90 -15 90
-10 0 -15 -7 -13 -17z"/>
<path d="M3942 11786 c-12 -7 -19 -15 -16 -19 11 -11 62 -8 69 3 3 6 0 10 -9
10 -8 0 -16 4 -18 9 -2 6 -13 4 -26 -3z"/>
<path d="M2373 11675 c-7 -8 -13 -28 -13 -45 0 -23 4 -30 20 -30 17 0 20 7 20
45 0 47 -6 54 -27 30z"/>
<path d="M3910 11614 c0 -15 46 -45 65 -42 25 4 22 22 -5 26 -11 2 -20 8 -20
13 0 5 -9 9 -20 9 -11 0 -20 -3 -20 -6z"/>
<path d="M2190 11580 c0 -5 5 -10 10 -10 6 0 10 5 10 10 0 6 -4 10 -10 10 -5
0 -10 -4 -10 -10z"/>
<path d="M2438 11363 c-37 -4 -38 -5 -38 -44 0 -36 2 -39 29 -39 16 0 36 -3
44 -6 10 -3 17 3 21 20 7 27 -2 77 -13 74 -3 -1 -23 -3 -43 -5z"/>
<path d="M2220 11190 c0 -23 4 -30 20 -30 11 0 20 -4 20 -10 0 -5 7 -10 15
-10 8 0 15 -7 15 -15 0 -12 13 -15 55 -15 l55 0 0 55 0 55 -90 0 -90 0 0 -30z"/>
<path d="M9467 11183 c-15 -15 -15 -17 0 -28 13 -10 20 -10 31 1 11 12 11 16
-1 28 -12 13 -16 12 -30 -1z"/>
<path d="M9591 11139 c-18 -7 -21 -12 -12 -22 8 -10 7 -22 -1 -44 -9 -24 -9
-38 2 -63 14 -33 14 -33 28 -12 8 12 23 22 33 22 10 0 21 5 24 10 4 6 56 10
123 10 109 0 120 2 155 25 20 14 37 34 37 44 0 16 -13 19 -112 24 -62 3 -137
4 -165 2 -29 -2 -53 1 -53 6 0 11 -28 11 -59 -2z"/>
<path d="M2122 11095 c-7 -8 -15 -28 -18 -45 -6 -28 -5 -30 24 -30 31 0 42 17
42 68 0 25 -28 30 -48 7z"/>
<path d="M1390 10940 c0 -5 -7 -10 -15 -10 -8 0 -15 -7 -15 -15 0 -8 -4 -15
-10 -15 -16 0 -11 -27 6 -34 9 -3 29 -6 45 -6 26 0 29 3 29 31 0 17 -6 37 -14
45 -17 16 -26 18 -26 4z"/>
<path d="M1710 10870 c0 -22 5 -40 10 -40 6 0 10 18 10 40 0 22 -4 40 -10 40
-5 0 -10 -18 -10 -40z"/>
<path d="M2073 10795 c-8 -8 -13 -41 -13 -75 0 -53 4 -64 29 -90 30 -32 41
-37 41 -19 0 7 10 21 23 32 15 13 18 21 10 24 -15 6 -17 33 -3 33 18 0 11 56
-10 78 -12 12 -25 22 -30 22 -4 0 -14 2 -22 5 -7 2 -19 -2 -25 -10z"/>
<path d="M1250 10754 c0 -23 20 -54 34 -54 3 0 6 18 6 40 0 33 -3 40 -20 40
-15 0 -20 -7 -20 -26z"/>
<path d="M1200 10569 c0 -36 -2 -40 -22 -37 -13 2 -24 11 -26 22 -4 21 -30 51
-37 44 -3 -2 -7 -18 -11 -34 -11 -58 55 -93 151 -78 l45 6 0 44 c0 38 -4 45
-30 59 -16 8 -38 15 -50 15 -17 0 -20 -6 -20 -41z"/>
<path d="M9980 10511 c0 -11 5 -23 10 -26 6 -4 10 5 10 19 0 14 -4 26 -10 26
-5 0 -10 -9 -10 -19z"/>
<path d="M1360 10351 c0 -11 -6 -22 -12 -24 -10 -4 -9 -8 2 -16 28 -20 40 -12
40 24 0 24 -5 35 -15 35 -8 0 -15 -9 -15 -19z"/>
<path d="M600 9650 c0 -5 4 -10 9 -10 5 0 16 -3 25 -6 11 -4 16 -1 16 10 0 10
-9 16 -25 16 -14 0 -25 -4 -25 -10z"/>
<path d="M760 9580 c0 -5 10 -10 23 -10 18 0 19 2 7 10 -19 13 -30 13 -30 0z"/>
<path d="M800 9560 c-10 -6 -11 -10 -2 -10 6 0 12 -7 12 -15 0 -8 5 -15 10
-15 6 0 10 7 10 15 0 8 6 15 13 15 8 0 7 4 -3 10 -8 5 -17 10 -20 10 -3 0 -12
-5 -20 -10z"/>
<path d="M1198 9526 c-28 -21 -22 -26 37 -26 48 0 55 2 55 20 0 17 -7 20 -37
20 -21 0 -46 -7 -55 -14z"/>
<path d="M1090 9470 c0 -11 5 -20 10 -20 6 0 10 9 10 20 0 11 -4 20 -10 20 -5
0 -10 -9 -10 -20z"/>
<path d="M1232 9412 c-52 -17 -61 -32 -17 -32 30 0 75 23 75 38 0 6 -1 12 -2
11 -2 -1 -27 -8 -56 -17z"/>
<path d="M710 9335 c0 -41 2 -45 25 -45 14 0 25 -4 25 -10 0 -15 39 -12 55 4
12 12 12 20 -2 55 -18 46 -40 53 -49 16 -3 -14 -10 -25 -15 -25 -5 0 -9 11 -9
25 0 16 -6 25 -15 25 -11 0 -15 -12 -15 -45z"/>
<path d="M13420 9001 c0 -6 5 -13 10 -16 6 -3 10 1 10 9 0 9 -4 16 -10 16 -5
0 -10 -4 -10 -9z"/>
<path d="M778 8503 c7 -3 16 -2 19 1 4 3 -2 6 -13 5 -11 0 -14 -3 -6 -6z"/>
<path d="M766 8482 c-3 -5 1 -28 8 -53 10 -32 18 -44 32 -44 25 0 29 29 9 71
-15 32 -38 44 -49 26z"/>
<path d="M570 8280 c-11 -7 -12 -14 -4 -27 18 -30 34 -27 34 6 0 33 -6 37 -30
21z"/>
<path d="M1255 8231 c-16 -9 -35 -23 -42 -31 -17 -21 -16 -57 3 -64 25 -10
194 -7 194 3 0 14 -41 41 -62 41 -10 0 -18 4 -18 8 0 5 -10 20 -22 34 -22 24
-24 24 -53 9z"/>
<path d="M1597 8243 c-15 -15 -5 -23 28 -23 24 0 35 5 35 15 0 15 -50 22 -63
8z"/>
<path d="M13641 8183 c7 -10 14 -20 16 -22 1 -1 7 0 13 4 14 9 -6 35 -27 35
-13 0 -13 -3 -2 -17z"/>
<path d="M938 8173 c-20 -5 -22 -12 -10 -31 12 -18 42 -4 42 19 0 19 -2 20
-32 12z"/>
<path d="M1633 8172 c-9 -6 -7 -11 7 -20 17 -11 20 -10 20 8 0 21 -7 25 -27
12z"/>
<path d="M1300 8100 c0 -5 10 -10 23 -10 18 0 19 2 7 10 -19 13 -30 13 -30 0z"/>
<path d="M1193 8083 c-7 -2 -13 -11 -13 -20 0 -8 -7 -21 -16 -30 -8 -9 -14
-25 -12 -37 2 -17 11 -22 51 -24 45 -3 47 -2 47 22 0 15 5 26 10 26 13 0 1 52
-14 62 -12 9 -35 9 -53 1z"/>
<path d="M1355 8044 c-8 -13 -4 -23 18 -45 32 -33 42 -35 63 -15 19 20 18 25
-13 52 -33 28 -54 30 -68 8z"/>
<path d="M790 8020 l-45 -18 46 -7 c69 -10 104 -4 104 20 0 27 -45 29 -105 5z"/>
<path d="M930 7970 c0 -13 7 -20 20 -20 24 0 25 6 6 26 -20 19 -26 18 -26 -6z"/>
<path d="M773 7934 c-37 -16 -44 -34 -13 -34 11 0 20 -4 20 -10 0 -5 18 -10
40 -10 34 0 41 4 46 24 3 14 3 30 -1 35 -9 15 -53 12 -92 -5z"/>
<path d="M970 7695 c0 -8 5 -15 10 -15 6 0 10 7 10 15 0 8 -4 15 -10 15 -5 0
-10 -7 -10 -15z"/>
<path d="M1072 7437 l-53 -9 22 -19 c23 -20 69 -26 69 -10 0 5 9 13 20 16 11
3 20 10 20 15 0 14 -24 16 -78 7z"/>
<path d="M1157 7394 c-4 -4 -7 -16 -7 -26 0 -11 -7 -18 -19 -18 -11 0 -21 -8
-23 -17 -3 -14 -12 -17 -46 -15 -33 3 -42 0 -42 -12 0 -9 -6 -16 -12 -17 -7
-1 -30 -3 -51 -4 -38 -4 -38 -4 -35 31 2 23 -3 38 -12 44 -19 13 -71 12 -90 0
-11 -7 -2 -10 31 -10 45 0 47 -1 53 -32 4 -18 9 -45 13 -60 3 -16 12 -28 19
-28 8 0 14 -6 14 -14 0 -18 60 -56 88 -56 11 0 23 7 26 16 7 19 -3 64 -15 64
-5 0 -9 9 -9 20 0 15 7 20 25 20 14 0 25 5 25 10 0 7 28 10 75 9 41 -2 78 1
82 5 5 4 -3 18 -17 30 -14 12 -30 31 -36 41 -12 21 -27 29 -37 19z"/>
<path d="M16 7293 c-5 -28 -11 -274 -8 -345 2 -31 6 -38 23 -38 19 0 20 -5 17
-65 l-3 -65 32 0 c20 0 30 5 29 13 -15 72 -19 87 -27 87 -5 0 -9 7 -9 15 0 10
10 15 30 15 30 0 43 -14 67 -75 10 -27 12 -28 12 -7 2 40 19 62 50 62 33 0 54
21 49 47 -2 12 -17 21 -46 27 -32 8 -44 16 -48 33 -8 29 -39 30 -56 3 -7 -11
-21 -20 -30 -20 -11 0 -18 8 -18 20 0 16 7 20 30 20 25 0 30 4 30 23 0 44 -61
90 -72 55 -2 -6 -10 -8 -16 -4 -15 9 -16 36 -1 36 5 0 7 5 4 10 -3 6 3 10 14
10 19 0 21 6 21 61 0 55 -3 64 -27 85 -36 30 -40 30 -47 -3z"/>
<path d="M813 7301 c-3 -11 -8 -21 -12 -21 -4 0 -8 -17 -10 -37 -1 -21 -2 -45
-3 -53 -1 -8 0 -40 0 -71 2 -44 6 -58 19 -64 10 -3 19 -1 21 4 2 6 9 11 15 11
9 0 12 32 12 108 0 91 -3 112 -18 127 -18 17 -18 17 -24 -4z"/>
<path d="M311 7274 c0 -11 3 -14 6 -6 3 7 2 16 -1 19 -3 4 -6 -2 -5 -13z"/>
<path d="M1395 7190 c-8 -14 3 -30 21 -30 8 0 14 9 14 20 0 21 -24 28 -35 10z"/>
<path d="M323 7177 c-4 -8 -16 -16 -25 -20 -12 -4 -18 -17 -18 -37 0 -27 -3
-30 -30 -30 -26 0 -30 -4 -30 -26 0 -14 4 -23 10 -19 6 3 10 1 10 -4 0 -22 26
-10 43 19 15 24 25 30 52 30 18 0 35 -5 37 -12 6 -16 38 -2 38 16 0 8 -9 18
-20 21 -12 4 -20 15 -20 29 0 37 -31 59 -47 33z"/>
<path d="M1187 7154 c-3 -4 1 -13 10 -22 16 -16 43 -8 51 16 4 12 -49 17 -61
6z"/>
<path d="M930 7069 c0 -23 3 -26 28 -21 15 3 29 8 32 12 3 4 14 11 24 17 16 9
11 11 -32 14 -50 4 -52 3 -52 -22z"/>
<path d="M560 7026 c0 -14 21 -26 46 -26 8 0 14 9 14 20 0 16 -7 20 -30 20
-19 0 -30 -5 -30 -14z"/>
<path d="M758 7026 c-25 -19 -22 -35 10 -63 30 -26 65 -38 82 -28 14 8 -16 45
-37 45 -8 0 -13 12 -13 30 0 32 -14 38 -42 16z"/>
<path d="M269 7021 c0 -3 -2 -17 -5 -30 -4 -22 -2 -23 37 -18 49 6 52 9 42 33
-5 13 -19 19 -40 20 -18 1 -33 -1 -34 -5z"/>
<path d="M1143 6985 c-17 -19 -16 -40 2 -75 18 -35 30 -38 45 -11 15 28 12 53
-9 79 -22 26 -22 26 -38 7z"/>
<path d="M943 6983 c-24 -9 -13 -22 28 -33 33 -9 44 -9 50 2 14 21 11 25 -22
32 -35 7 -38 7 -56 -1z"/>
<path d="M375 6970 c-3 -5 -2 -10 4 -10 12 0 41 -28 41 -41 0 -5 -6 -9 -13 -9
-17 0 -38 -44 -28 -56 5 -5 11 -26 14 -46 4 -29 2 -38 -9 -38 -9 0 -14 11 -14
31 l0 31 -67 -7 c-38 -4 -70 -8 -72 -10 -8 -8 12 -25 30 -25 29 0 26 -40 -3
-41 -20 -1 -20 -2 -4 -6 28 -7 54 -35 38 -41 -6 -2 -12 -15 -12 -28 0 -21 4
-24 40 -24 28 0 40 4 40 14 0 8 15 29 32 45 l33 31 18 -35 c12 -24 24 -35 40
-35 36 0 67 11 67 24 0 16 -62 76 -78 76 -7 0 -12 13 -12 28 0 15 -4 32 -9 38
-19 20 -22 52 -6 68 12 12 14 20 5 36 -6 11 -15 20 -21 20 -6 0 -7 5 -4 10 3
6 -5 10 -19 10 -14 0 -28 -4 -31 -10z"/>
<path d="M580 6956 c0 -19 -4 -23 -19 -19 -10 3 -22 0 -26 -7 -9 -14 -6 -17
20 -22 11 -1 23 -7 27 -12 10 -14 34 16 41 52 6 29 4 32 -18 32 -20 0 -25 -5
-25 -24z"/>
<path d="M1225 6970 c-8 -13 20 -24 42 -16 15 6 15 8 3 16 -20 13 -37 12 -45
0z"/>
<path d="M1052 6918 c-7 -7 -12 -27 -12 -45 0 -18 -4 -33 -10 -33 -5 0 -10 -7
-10 -15 0 -8 -6 -15 -12 -15 -7 0 -5 -5 5 -11 10 -6 35 -8 57 -4 38 6 38 7 24
33 -8 15 -14 44 -14 65 0 38 -8 45 -28 25z"/>
<path d="M18 6763 c7 -3 16 -2 19 1 4 3 -2 6 -13 5 -11 0 -14 -3 -6 -6z"/>
<path d="M1550 6704 c0 -11 -3 -24 -7 -28 -5 -4 -13 -24 -18 -44 -13 -44 -41
-55 -50 -19 -5 19 -11 23 -36 19 -16 -2 -29 -8 -29 -13 0 -5 -12 -9 -26 -9
-24 0 -25 -2 -19 -32 4 -18 8 -34 9 -34 0 -1 23 -4 49 -7 36 -3 50 -1 54 9 3
9 21 14 47 14 35 0 48 6 69 30 33 37 33 45 4 73 -13 12 -29 31 -35 42 -11 20
-11 20 -12 -1z"/>
<path d="M28 6673 c-20 -5 -21 -14 -12 -62 4 -17 13 -31 20 -31 8 0 13 6 11
13 -1 7 12 13 36 15 27 2 37 8 37 20 0 15 -15 25 -70 48 -3 1 -13 0 -22 -3z"/>
<path d="M1846 6634 c-9 -23 -8 -24 19 -24 18 0 25 5 25 20 0 24 -35 28 -44 4z"/>
<path d="M676 6564 c-12 -31 -7 -56 10 -50 9 3 18 6 20 6 2 0 4 14 4 30 0 32
-23 42 -34 14z"/>
<path d="M186 6511 c-8 -13 4 -42 15 -35 12 7 12 44 0 44 -6 0 -12 -4 -15 -9z"/>
<path d="M1300 6506 c0 -18 -36 -27 -82 -19 -42 6 -47 0 -22 -25 11 -11 31
-16 60 -14 24 1 44 -3 44 -8 0 -6 18 -10 40 -10 25 0 40 -5 40 -12 0 -7 10
-18 23 -24 18 -8 26 -6 42 8 26 25 35 22 35 -12 0 -23 4 -30 20 -30 17 0 20 7
20 40 l0 40 -68 0 c-63 0 -70 2 -82 25 -7 14 -17 25 -22 25 -4 0 -8 7 -8 15 0
8 -9 15 -20 15 -11 0 -20 -6 -20 -14z"/>
<path d="M376 6455 c-8 -22 4 -37 22 -26 9 6 9 11 -1 25 -13 18 -14 18 -21 1z"/>
<path d="M1020 6345 c0 -8 9 -15 20 -15 24 0 27 15 4 24 -22 9 -24 8 -24 -9z"/>
<path d="M805 6294 c-17 -13 -18 -16 -5 -24 8 -5 24 -10 35 -10 11 0 27 5 35
10 13 8 12 11 -5 24 -11 9 -24 15 -30 15 -5 0 -19 -6 -30 -15z"/>
<path d="M370 6180 c0 -5 11 -10 25 -10 14 0 25 5 25 10 0 6 -11 10 -25 10
-14 0 -25 -4 -25 -10z"/>
<path d="M1270 6180 c0 -5 5 -10 11 -10 5 0 7 5 4 10 -3 6 -8 10 -11 10 -2 0
-4 -4 -4 -10z"/>
<path d="M1464 6160 c-30 -12 -39 -30 -16 -30 11 0 25 -7 32 -15 7 -8 25 -15
41 -15 15 0 45 -11 65 -25 51 -34 74 -33 74 4 0 23 -6 31 -30 40 -16 5 -30 15
-30 20 0 6 -7 11 -15 11 -8 0 -15 5 -15 10 0 12 -77 12 -106 0z"/>
<path d="M205 6091 c-8 -27 1 -41 26 -41 16 0 20 6 17 27 -4 34 -33 43 -43 14z"/>
<path d="M987 6082 c-21 -23 -22 -52 -3 -52 8 0 16 -4 18 -10 2 -5 10 4 20 19
15 28 15 31 -1 45 -16 15 -19 15 -34 -2z"/>
<path d="M97 6004 c-10 -11 3 -24 23 -24 13 0 17 5 14 15 -6 15 -26 20 -37 9z"/>
<path d="M230 5895 c0 -14 5 -25 10 -25 6 0 10 11 10 25 0 14 -4 25 -10 25 -5
0 -10 -11 -10 -25z"/>
<path d="M1747 5913 c-12 -12 -7 -41 8 -47 19 -7 75 4 75 15 0 26 -64 52 -83
32z"/>
<path d="M500 5860 c-12 -8 -9 -10 13 -10 16 0 26 4 22 10 -8 12 -16 12 -35 0z"/>
<path d="M1580 5835 c0 -14 4 -25 9 -25 5 0 11 11 13 25 4 17 1 25 -8 25 -8 0
-14 -11 -14 -25z"/>
<path d="M350 5810 c0 -16 5 -30 10 -30 6 0 10 14 10 30 0 17 -4 30 -10 30 -5
0 -10 -13 -10 -30z"/>
<path d="M377 5704 c-12 -12 4 -24 34 -24 31 0 39 14 13 24 -20 8 -39 8 -47 0z"/>
<path d="M1480 5695 c0 -8 5 -15 10 -15 6 0 10 7 10 15 0 8 -4 15 -10 15 -5 0
-10 -7 -10 -15z"/>
<path d="M1480 5615 c0 -41 2 -45 24 -45 42 0 42 32 -1 77 -19 21 -23 15 -23
-32z"/>
<path d="M294 5594 c3 -9 6 -18 6 -20 0 -2 11 -4 25 -4 18 0 25 5 25 20 0 16
-7 20 -31 20 -24 0 -30 -3 -25 -16z"/>
<path d="M560 5484 c0 -8 5 -12 10 -9 6 4 8 11 5 16 -9 14 -15 11 -15 -7z"/>
<path d="M240 5474 c0 -17 22 -14 28 4 2 7 -3 12 -12 12 -9 0 -16 -7 -16 -16z"/>
<path d="M1480 5405 c0 -8 4 -15 9 -15 5 0 14 7 21 15 10 13 9 15 -9 15 -12 0
-21 -6 -21 -15z"/>
<path d="M1632 5384 c-20 -23 -7 -44 28 -44 20 0 30 -5 30 -15 0 -8 9 -15 20
-15 11 0 20 5 20 10 0 14 -46 60 -60 60 -5 0 -10 5 -10 10 0 14 -13 12 -28 -6z"/>
<path d="M414 5165 c-7 -17 4 -37 17 -30 12 8 12 45 -1 45 -6 0 -13 -7 -16
-15z"/>
<path d="M350 5130 c0 -11 5 -20 10 -20 6 0 10 9 10 20 0 11 -4 20 -10 20 -5
0 -10 -9 -10 -20z"/>
<path d="M1543 5103 c-9 -29 -8 -39 2 -50 31 -31 75 -4 75 45 0 22 -6 31 -22
36 -38 10 -43 7 -55 -31z"/>
<path d="M1423 5103 c-21 -8 -15 -20 16 -31 33 -12 41 -7 41 20 0 18 -28 23
-57 11z"/>
<path d="M1288 4993 c-10 -2 -18 -13 -18 -23 0 -28 49 -40 80 -20 13 9 12 13
-9 30 -13 11 -26 19 -30 19 -3 -1 -14 -3 -23 -6z"/>
<path d="M1760 4960 c0 -5 21 -10 46 -10 27 0 43 4 39 10 -3 6 -24 10 -46 10
-21 0 -39 -4 -39 -10z"/>
<path d="M370 4905 c0 -29 3 -36 18 -33 11 2 17 13 17 33 0 20 -6 31 -17 33
-15 3 -18 -4 -18 -33z"/>
<path d="M1812 4900 c-11 -18 -10 -20 13 -20 18 0 25 5 25 20 0 11 -6 20 -13
20 -7 0 -18 -9 -25 -20z"/>
<path d="M533 4854 c-3 -8 -1 -20 6 -27 8 -8 11 -4 11 16 0 30 -7 35 -17 11z"/>
<path d="M1542 4808 c-10 -39 -1 -48 46 -48 37 0 41 16 16 55 -23 36 -52 32
-62 -7z"/>
<path d="M384 4767 c-12 -14 -1 -57 15 -57 15 0 23 18 11 25 -17 10 -11 25 9
25 11 0 23 5 26 10 9 15 -48 12 -61 -3z"/>
<path d="M1480 4707 c0 -7 -9 -19 -20 -27 -14 -10 -20 -26 -20 -55 0 -28 6
-46 20 -58 11 -9 20 -24 20 -32 0 -17 5 -18 29 -6 20 11 21 66 1 144 -11 43
-30 65 -30 34z"/>
<path d="M410 4661 c0 -17 12 -41 21 -41 5 0 9 11 9 25 0 16 -6 25 -15 25 -8
0 -15 -4 -15 -9z"/>
<path d="M437 4594 c-11 -11 13 -44 31 -44 10 0 28 7 41 16 18 13 20 18 10 25
-16 10 -73 12 -82 3z"/>
<path d="M1568 4573 c-10 -2 -18 -13 -18 -24 0 -15 7 -19 38 -19 48 0 55 6 34
31 -17 19 -22 20 -54 12z"/>
<path d="M1490 4331 c0 -5 -7 -17 -16 -25 -8 -9 -13 -24 -11 -34 4 -14 6 -14
12 6 7 20 14 22 71 22 36 0 64 4 64 10 0 6 -18 10 -40 10 -22 0 -40 5 -40 10
0 6 -9 10 -20 10 -11 0 -20 -4 -20 -9z"/>
<path d="M1653 4163 c-15 -6 -17 -49 -3 -58 6 -3 10 -19 10 -36 0 -30 17 -38
38 -17 14 14 16 108 3 108 -5 0 -15 2 -23 4 -7 3 -19 2 -25 -1z"/>
<path d="M1552 4131 c-16 -10 -12 -43 6 -49 8 -2 12 7 12 27 0 34 0 34 -18 22z"/>
<path d="M1592 4020 c7 -11 16 -20 20 -20 5 0 8 -11 8 -25 0 -18 5 -25 20 -25
11 0 20 7 20 15 0 8 -9 20 -20 27 -11 7 -20 21 -20 30 0 11 -8 18 -20 18 -18
0 -19 -2 -8 -20z"/>
<path d="M1403 3983 c-17 -6 -17 -30 0 -36 17 -6 67 3 67 12 0 23 -37 37 -67
24z"/>
<path d="M1578 3922 c-32 -4 -34 -8 -14 -28 18 -17 56 -19 56 -1 0 22 -15 32
-42 29z"/>
<path d="M1550 3850 c0 -5 5 -10 10 -10 6 0 10 5 10 10 0 6 -4 10 -10 10 -5 0
-10 -4 -10 -10z"/>
<path d="M1292 3650 c-11 -19 -10 -20 28 -20 33 0 40 3 40 20 0 15 -7 20 -28
20 -16 0 -32 -8 -40 -20z"/>
</g>
</svg>
